<svg width="1940" height="343" viewBox="0 0 1940 343" fill="none" xmlns="http://www.w3.org/2000/svg">
<g clip-path="url(#clip0_442_862)">
<rect width="1940" height="343" fill="white"/>
<rect x="-3.8999" width="80.3148" height="20.5514" rx="3" fill="#E14646" fill-opacity="0.3"/>
<path d="M3.75297 14V3.81818H7.19332C7.98877 3.81818 8.64171 3.95407 9.15212 4.22585C9.66254 4.49432 10.0404 4.86387 10.2856 5.33452C10.5309 5.80516 10.6535 6.34044 10.6535 6.94034C10.6535 7.54025 10.5309 8.07221 10.2856 8.53622C10.0404 9.00024 9.6642 9.36482 9.15709 9.62997C8.64999 9.89181 8.00203 10.0227 7.2132 10.0227H4.42911V8.90909H7.17343C7.71699 8.90909 8.15449 8.82955 8.48593 8.67045C8.82068 8.51136 9.06263 8.28598 9.21178 7.99432C9.36424 7.69934 9.44047 7.34801 9.44047 6.94034C9.44047 6.53267 9.36424 6.17637 9.21178 5.87145C9.05932 5.56652 8.81571 5.3312 8.48096 5.16548C8.1462 4.99645 7.70373 4.91193 7.15354 4.91193H4.98593V14H3.75297ZM8.54559 9.42614L11.0513 14H9.61945L7.15354 9.42614H8.54559ZM15.6686 14.1591C14.9328 14.1591 14.2981 13.9967 13.7645 13.6719C13.2342 13.3438 12.8249 12.8864 12.5365 12.2997C12.2515 11.7098 12.109 11.0237 12.109 10.2415C12.109 9.45928 12.2515 8.76989 12.5365 8.1733C12.8249 7.57339 13.2259 7.10606 13.7397 6.77131C14.2567 6.43324 14.8599 6.2642 15.5493 6.2642C15.947 6.2642 16.3398 6.33049 16.7276 6.46307C17.1154 6.59564 17.4684 6.81108 17.7865 7.10938C18.1047 7.40436 18.3583 7.79545 18.5472 8.28267C18.7361 8.76989 18.8306 9.36979 18.8306 10.0824V10.5795H12.9442V9.56534H17.6374C17.6374 9.13447 17.5512 8.75 17.3789 8.41193C17.2098 8.07386 16.9679 7.80705 16.653 7.61151C16.3415 7.41596 15.9736 7.31818 15.5493 7.31818C15.082 7.31818 14.6776 7.43419 14.3362 7.66619C13.9982 7.89489 13.738 8.19318 13.5557 8.56108C13.3734 8.92898 13.2823 9.32339 13.2823 9.74432V10.4205C13.2823 10.9972 13.3817 11.486 13.5806 11.8871C13.7827 12.2848 14.0628 12.5881 14.4208 12.7969C14.7787 13.0024 15.1947 13.1051 15.6686 13.1051C15.9769 13.1051 16.2553 13.062 16.5039 12.9759C16.7558 12.8864 16.9728 12.7538 17.1551 12.5781C17.3374 12.3991 17.4783 12.1771 17.5777 11.9119L18.7112 12.2301C18.5919 12.6146 18.3914 12.9527 18.1097 13.2443C17.828 13.5327 17.48 13.758 17.0657 13.9205C16.6514 14.0795 16.1857 14.1591 15.6686 14.1591ZM23.4989 14.1591C22.8625 14.1591 22.3007 13.9983 21.8135 13.6768C21.3263 13.352 20.9451 12.8946 20.6701 12.3047C20.395 11.7114 20.2574 11.0104 20.2574 10.2017C20.2574 9.39962 20.395 8.7036 20.6701 8.11364C20.9451 7.52367 21.328 7.06794 21.8185 6.74645C22.309 6.42495 22.8758 6.2642 23.5188 6.2642C24.0159 6.2642 24.4087 6.34706 24.697 6.51278C24.9887 6.67519 25.2108 6.8608 25.3632 7.0696C25.519 7.27509 25.64 7.44413 25.7262 7.5767H25.8256V3.81818H26.9989V14H25.8654V12.8267H25.7262C25.64 12.9659 25.5174 13.1416 25.3583 13.3537C25.1992 13.5625 24.9721 13.7498 24.6772 13.9155C24.3822 14.0779 23.9894 14.1591 23.4989 14.1591ZM23.658 13.1051C24.1286 13.1051 24.5264 12.9825 24.8512 12.7372C25.176 12.4886 25.4229 12.1456 25.5919 11.7081C25.761 11.2673 25.8455 10.7585 25.8455 10.1818C25.8455 9.61174 25.7626 9.11293 25.5969 8.68537C25.4312 8.2545 25.1859 7.91974 24.8611 7.68111C24.5363 7.43916 24.1353 7.31818 23.658 7.31818C23.1608 7.31818 22.7465 7.44579 22.4151 7.70099C22.087 7.95289 21.84 8.29593 21.6743 8.73011C21.5119 9.16098 21.4307 9.64489 21.4307 10.1818C21.4307 10.7254 21.5136 11.2192 21.6793 11.6634C21.8483 12.1042 22.0969 12.4555 22.425 12.7173C22.7565 12.9759 23.1675 13.1051 23.658 13.1051ZM36.5692 6.36364V7.35795H32.6118V6.36364H36.5692ZM33.7652 4.53409H34.9385V11.8125C34.9385 12.1439 34.9866 12.3925 35.0827 12.5582C35.1821 12.7206 35.3081 12.83 35.4605 12.8864C35.6163 12.9394 35.7804 12.9659 35.9527 12.9659C36.082 12.9659 36.188 12.9593 36.2709 12.946C36.3538 12.9295 36.4201 12.9162 36.4698 12.9062L36.7084 13.9602C36.6289 13.9901 36.5178 14.0199 36.3753 14.0497C36.2328 14.0829 36.0522 14.0994 35.8334 14.0994C35.502 14.0994 35.1772 14.0282 34.859 13.8857C34.5441 13.7431 34.2823 13.526 34.0735 13.2344C33.868 12.9427 33.7652 12.5748 33.7652 12.1307V4.53409ZM40.5813 14.179C40.0974 14.179 39.6582 14.0878 39.2638 13.9055C38.8694 13.7199 38.5562 13.4531 38.3242 13.1051C38.0922 12.7538 37.9762 12.3295 37.9762 11.8324C37.9762 11.3949 38.0623 11.0402 38.2347 10.7685C38.407 10.4934 38.6374 10.2779 38.9257 10.1222C39.2141 9.96638 39.5323 9.85038 39.8803 9.77415C40.2316 9.6946 40.5846 9.63163 40.9392 9.58523C41.4032 9.52557 41.7794 9.48082 42.0678 9.45099C42.3594 9.41785 42.5716 9.36316 42.7041 9.28693C42.84 9.2107 42.908 9.07812 42.908 8.8892V8.84943C42.908 8.3589 42.7737 7.97775 42.5053 7.70597C42.2401 7.43419 41.8374 7.2983 41.2972 7.2983C40.7371 7.2983 40.2979 7.42093 39.9797 7.66619C39.6615 7.91146 39.4378 8.1733 39.3085 8.4517L38.1949 8.05398C38.3938 7.58996 38.6589 7.22869 38.9904 6.97017C39.3251 6.70833 39.6897 6.52604 40.0841 6.4233C40.4818 6.31723 40.8729 6.2642 41.2574 6.2642C41.5027 6.2642 41.7844 6.29403 42.1026 6.35369C42.4241 6.41004 42.734 6.5277 43.0323 6.70668C43.3339 6.88565 43.5841 7.15578 43.783 7.51705C43.9818 7.87831 44.0813 8.36222 44.0813 8.96875V14H42.908V12.9659H42.8483C42.7688 13.1316 42.6362 13.3089 42.4506 13.4979C42.265 13.6868 42.0181 13.8475 41.7098 13.9801C41.4016 14.1127 41.0254 14.179 40.5813 14.179ZM40.7603 13.125C41.2243 13.125 41.6154 13.0339 41.9335 12.8516C42.255 12.6693 42.497 12.4339 42.6594 12.1456C42.8251 11.8572 42.908 11.554 42.908 11.2358V10.1619C42.8583 10.2216 42.7489 10.2763 42.5799 10.326C42.4141 10.3724 42.2219 10.4138 42.0032 10.4503C41.7877 10.4834 41.5773 10.5133 41.3718 10.5398C41.1696 10.563 41.0055 10.5829 40.8796 10.5994C40.5746 10.6392 40.2896 10.7038 40.0245 10.7933C39.7626 10.8795 39.5505 11.0104 39.3881 11.1861C39.229 11.3584 39.1495 11.5937 39.1495 11.892C39.1495 12.2997 39.3003 12.608 39.6019 12.8168C39.9068 13.0223 40.2929 13.125 40.7603 13.125ZM49.3052 17.0227C48.7384 17.0227 48.2512 16.9498 47.8435 16.804C47.4359 16.6615 47.0961 16.4725 46.8244 16.2372C46.5559 16.0052 46.3421 15.7566 46.183 15.4915L47.1177 14.8352C47.2237 14.9744 47.358 15.1335 47.5204 15.3125C47.6828 15.4948 47.9048 15.6522 48.1866 15.7848C48.4716 15.9207 48.8445 15.9886 49.3052 15.9886C49.9217 15.9886 50.4304 15.8395 50.8315 15.5412C51.2325 15.2429 51.433 14.7756 51.433 14.1392V12.5881H51.3336C51.2474 12.7273 51.1248 12.8996 50.9657 13.1051C50.8099 13.3073 50.5845 13.4879 50.2896 13.647C49.9979 13.8028 49.6035 13.8807 49.1063 13.8807C48.4898 13.8807 47.9363 13.7348 47.4458 13.4432C46.9586 13.1515 46.5725 12.7273 46.2874 12.1705C46.0057 11.6136 45.8648 10.9375 45.8648 10.142C45.8648 9.35985 46.0024 8.67874 46.2775 8.09872C46.5526 7.51539 46.9354 7.06463 47.4259 6.74645C47.9164 6.42495 48.4832 6.2642 49.1262 6.2642C49.6234 6.2642 50.0178 6.34706 50.3094 6.51278C50.6044 6.67519 50.8298 6.8608 50.9856 7.0696C51.1447 7.27509 51.2673 7.44413 51.3535 7.5767H51.4728V6.36364H52.6063V14.2188C52.6063 14.875 52.4572 15.4086 52.1589 15.8196C51.8639 16.2339 51.4662 16.5372 50.9657 16.7294C50.4685 16.925 49.915 17.0227 49.3052 17.0227ZM49.2654 12.8267C49.736 12.8267 50.1338 12.719 50.4586 12.5036C50.7834 12.2881 51.0303 11.9782 51.1994 11.5739C51.3684 11.1695 51.4529 10.6856 51.4529 10.1222C51.4529 9.57197 51.37 9.08641 51.2043 8.66548C51.0386 8.24455 50.7933 7.91477 50.4685 7.67614C50.1437 7.4375 49.7427 7.31818 49.2654 7.31818C48.7682 7.31818 48.3539 7.44413 48.0225 7.69602C47.6944 7.94792 47.4475 8.28598 47.2817 8.71023C47.1193 9.13447 47.0381 9.60511 47.0381 10.1222C47.0381 10.6525 47.121 11.1214 47.2867 11.5291C47.4557 11.9335 47.7043 12.2517 48.0324 12.4837C48.3639 12.7124 48.7749 12.8267 49.2654 12.8267Z" fill="#37352F"/>
<path d="M-4 0H1944V343H-4V0Z" fill="#CCFFE2"/>
<path fill-rule="evenodd" clip-rule="evenodd" d="M1943.55 237.166V343H475.379C535.532 293.689 599.915 248.214 668.419 207.174C1082.63 -40.9782 1540.57 29.3675 1943.55 237.166Z" fill="#FFECEA"/>
<path fill-rule="evenodd" clip-rule="evenodd" d="M1373.87 169.08C1373.93 113.585 1408.92 58.5252 1467.21 46.2886C1518.96 35.4249 1554.8 83.747 1584.16 124.933C1611.76 163.654 1640.07 210.579 1611.16 248.223C1579.64 289.281 1518.29 294.69 1466.96 277.572C1415.17 260.296 1373.82 220.063 1373.87 169.08Z" fill="#0018A4"/>
<path fill-rule="evenodd" clip-rule="evenodd" d="M135.668 64.0355C166.613 63.0843 197.932 81.711 205.784 114.146C212.755 142.942 186.443 163.876 163.996 181.054C142.892 197.204 117.226 213.893 95.7253 198.369C72.2753 181.438 68.1762 147.165 76.8156 118.11C85.5343 88.7876 107.239 64.9093 135.668 64.0355Z" fill="white"/>
<rect x="-4" width="1944" height="100" fill="#0018A4"/>
<path d="M103.722 33.956H97.8586V33.3H115.817V33.956H109.954V38.876H115.817V39.532H109.954V62H109.298V39.532H104.378V62H103.722V39.532H97.8586V38.876H103.722V33.956ZM109.298 33.956H104.378V38.876H109.298V33.956ZM114.398 51.135C114.398 44.862 119.482 39.778 125.755 39.778C130.757 39.778 134.98 42.976 136.497 47.486L123.172 55.563C123.951 56.014 124.812 56.26 125.755 56.26C127.805 56.26 129.568 55.03 130.388 53.308L131.003 53.595C130.101 55.563 128.092 56.916 125.755 56.916C124.566 56.916 123.459 56.547 122.557 55.932L118.129 58.638C120.056 60.606 122.762 61.836 125.755 61.836C130.019 61.836 133.75 59.294 135.472 55.645L136.046 55.932C134.242 59.827 130.306 62.492 125.755 62.492C119.482 62.492 114.398 57.408 114.398 51.135ZM115.054 51.135C115.054 52.324 115.259 53.431 115.587 54.497L120.015 51.791C119.974 51.586 119.974 51.34 119.974 51.135C119.974 47.937 122.557 45.354 125.755 45.354C126.944 45.354 128.092 45.723 128.994 46.338L133.381 43.673C131.454 41.664 128.748 40.434 125.755 40.434C119.851 40.434 115.054 45.231 115.054 51.135ZM115.833 55.112C116.284 56.219 116.899 57.244 117.678 58.146L121.983 55.522C121.081 54.743 120.425 53.677 120.138 52.488L115.833 55.112ZM120.63 51.135V51.422L128.379 46.707C127.6 46.256 126.698 46.01 125.755 46.01C122.926 46.01 120.63 48.306 120.63 51.135ZM120.712 52.16C120.958 53.349 121.655 54.415 122.598 55.153L130.798 50.151C130.552 48.962 129.896 47.896 128.953 47.117L120.712 52.16ZM129.568 46.789C130.47 47.568 131.126 48.593 131.372 49.823L135.718 47.158C135.267 46.051 134.611 45.067 133.873 44.165L129.568 46.789ZM149.355 45.846V46.502H148.166C145.665 46.502 143.533 48.634 143.533 51.135C143.533 53.636 145.665 55.768 148.166 55.768H149.355V56.424H148.166C145.296 56.424 142.877 54.005 142.877 51.135C142.877 48.265 145.296 45.846 148.166 45.846H149.355ZM149.355 40.926H148.166C142.549 40.926 137.957 45.518 137.957 51.135C137.957 56.752 142.549 61.344 148.166 61.344H149.355V62H148.166C142.18 62 137.301 57.121 137.301 51.135C137.301 45.149 142.18 40.27 148.166 40.27H149.355V40.926ZM152.824 62V31.25H153.48V46.461C154.382 44.124 156.145 42.197 158.4 41.09V31.25H159.056V40.762C160.204 40.311 161.434 40.065 162.746 40.065C168.199 40.065 172.668 44.534 172.668 49.987V62H172.012V49.987C172.012 44.903 167.83 40.721 162.746 40.721C161.434 40.721 160.204 41.008 159.056 41.5V47.691C159.835 46.461 161.188 45.641 162.746 45.641C165.124 45.641 167.092 47.609 167.092 49.987V62H166.436V49.987C166.436 47.978 164.755 46.297 162.746 46.297C160.737 46.297 159.056 47.978 159.056 49.987V62H158.4V41.828C155.489 43.386 153.48 46.461 153.48 49.987V62H152.824ZM176.527 62V40.27H177.183V46.461C178.085 44.124 179.848 42.197 182.103 41.09V40.27H182.759V40.762C183.907 40.311 185.137 40.065 186.449 40.065C191.902 40.065 196.371 44.534 196.371 49.987V62H195.715V49.987C195.715 44.903 191.533 40.721 186.449 40.721C185.137 40.721 183.907 41.008 182.759 41.5V47.691C183.538 46.461 184.891 45.641 186.449 45.641C188.827 45.641 190.795 47.609 190.795 49.987V62H190.139V49.987C190.139 47.978 188.458 46.297 186.449 46.297C184.44 46.297 182.759 47.978 182.759 49.987V62H182.103V41.828C179.192 43.386 177.183 46.461 177.183 49.987V62H176.527ZM200.23 62V40.27H200.886V62H200.23ZM206.462 40.27V62H205.806V40.27H206.462ZM205.806 38.138V31.25H206.462V38.138H205.806ZM200.886 31.25V38.138H200.23V31.25H200.886ZM209.451 51.135C209.451 44.862 214.535 39.778 220.808 39.778C222.653 39.778 224.375 40.229 225.933 41.008V40.27H226.589V41.377C228.885 42.648 230.648 44.944 231.509 47.322V40.27H232.165V60.155C232.165 66.428 227.122 71.512 220.808 71.512C216.913 71.512 213.469 69.503 211.378 66.51L211.952 66.182C213.92 69.011 217.159 70.856 220.808 70.856C226.794 70.856 231.509 66.1 231.509 60.155V54.907C230.689 57.285 228.844 59.663 226.507 60.934C226.097 63.722 223.76 65.936 220.808 65.936C218.963 65.936 217.282 65.034 216.216 63.722L216.79 63.394C217.692 64.501 219.209 65.28 220.808 65.28C223.268 65.28 225.277 63.599 225.81 61.344C224.293 62.041 222.571 62.492 220.808 62.492C214.535 62.492 209.451 57.408 209.451 51.135ZM210.107 51.135C210.107 57.039 214.904 61.836 220.808 61.836C222.653 61.836 224.375 61.385 225.892 60.565C225.933 60.278 225.933 59.745 225.933 59.212V53.841C224.949 55.645 223.022 56.916 220.808 56.916C217.61 56.916 215.027 54.333 215.027 51.135C215.027 47.937 217.61 45.354 220.808 45.354C223.022 45.354 224.949 46.625 225.933 48.47V41.746C224.416 40.926 222.653 40.434 220.808 40.434C214.904 40.434 210.107 45.231 210.107 51.135ZM215.683 51.135C215.683 53.964 217.979 56.26 220.808 56.26C223.678 56.26 225.933 53.964 225.933 51.135C225.933 48.306 223.678 46.01 220.808 46.01C217.979 46.01 215.683 48.306 215.683 51.135ZM226.589 42.115V60.155C229.336 58.474 231.509 55.071 231.509 51.135C231.509 47.199 229.336 43.796 226.589 42.115ZM246.432 62.492C240.159 62.492 235.075 57.408 235.075 51.135C235.075 44.862 240.159 39.778 246.432 39.778C252.705 39.778 257.789 44.862 257.789 51.135C257.789 57.408 252.705 62.492 246.432 62.492ZM246.432 61.836C252.336 61.836 257.133 57.039 257.133 51.135C257.133 45.231 252.336 40.434 246.432 40.434C240.528 40.434 235.731 45.231 235.731 51.135C235.731 57.039 240.528 61.836 246.432 61.836ZM246.432 56.916C243.234 56.916 240.651 54.333 240.651 51.135C240.651 47.937 243.234 45.354 246.432 45.354C249.63 45.354 252.213 47.937 252.213 51.135C252.213 54.333 249.63 56.916 246.432 56.916ZM246.432 56.26C249.261 56.26 251.557 53.964 251.557 51.135C251.557 48.306 249.261 46.01 246.432 46.01C243.603 46.01 241.307 48.306 241.307 51.135C241.307 53.964 243.603 56.26 246.432 56.26ZM282.663 62H282.007L276.103 46.871V62H275.447V39.532H270.527V62H269.871V33.3H279.014C284.262 33.3 288.444 37.482 288.444 42.73C288.444 46.912 286.353 49.372 283.934 50.889L288.239 62H287.583L283.401 51.217C282.212 51.914 280.531 52.529 279.137 52.939L282.663 62ZM281.761 45.313L283.688 50.274C285.902 48.88 287.788 46.584 287.788 42.73C287.788 37.81 283.934 33.956 279.014 33.956H276.103V38.876H279.014C281.146 38.876 282.868 40.598 282.868 42.73C282.868 43.714 282.499 44.575 281.761 45.313ZM276.103 39.532V46.871L277.661 46.543C280.859 45.846 282.212 44.493 282.212 42.73C282.212 40.926 280.818 39.532 279.014 39.532H276.103ZM270.527 33.956V38.876H275.447V33.956H270.527ZM283.155 50.602L281.269 45.764C280.039 46.707 278.604 47.035 277.005 47.363L278.891 52.283C280.121 51.955 282.13 51.217 283.155 50.602ZM289.929 51.135C289.929 44.862 295.013 39.778 301.286 39.778C306.288 39.778 310.511 42.976 312.028 47.486L298.703 55.563C299.482 56.014 300.343 56.26 301.286 56.26C303.336 56.26 305.099 55.03 305.919 53.308L306.534 53.595C305.632 55.563 303.623 56.916 301.286 56.916C300.097 56.916 298.99 56.547 298.088 55.932L293.66 58.638C295.587 60.606 298.293 61.836 301.286 61.836C305.55 61.836 309.281 59.294 311.003 55.645L311.577 55.932C309.773 59.827 305.837 62.492 301.286 62.492C295.013 62.492 289.929 57.408 289.929 51.135ZM290.585 51.135C290.585 52.324 290.79 53.431 291.118 54.497L295.546 51.791C295.505 51.586 295.505 51.34 295.505 51.135C295.505 47.937 298.088 45.354 301.286 45.354C302.475 45.354 303.623 45.723 304.525 46.338L308.912 43.673C306.985 41.664 304.279 40.434 301.286 40.434C295.382 40.434 290.585 45.231 290.585 51.135ZM291.364 55.112C291.815 56.219 292.43 57.244 293.209 58.146L297.514 55.522C296.612 54.743 295.956 53.677 295.669 52.488L291.364 55.112ZM296.161 51.135V51.422L303.91 46.707C303.131 46.256 302.229 46.01 301.286 46.01C298.457 46.01 296.161 48.306 296.161 51.135ZM296.243 52.16C296.489 53.349 297.186 54.415 298.129 55.153L306.329 50.151C306.083 48.962 305.427 47.896 304.484 47.117L296.243 52.16ZM305.099 46.789C306.001 47.568 306.657 48.593 306.903 49.823L311.249 47.158C310.798 46.051 310.142 45.067 309.404 44.165L305.099 46.789ZM329.929 42.115V60.155C332.676 58.474 334.849 55.071 334.849 51.135C334.849 47.199 332.676 43.796 329.929 42.115ZM324.148 39.778C325.993 39.778 327.715 40.229 329.273 41.008V40.27H329.929V41.377C332.225 42.648 333.988 44.944 334.849 47.322V40.27H335.505V62H334.849V54.907C334.029 57.244 332.225 59.663 329.929 60.934V62H329.273V61.262C327.715 62.041 325.993 62.492 324.148 62.492C317.875 62.492 312.791 57.408 312.791 51.135C312.791 44.862 317.875 39.778 324.148 39.778ZM324.148 61.836C325.993 61.836 327.756 61.385 329.273 60.565V53.841C328.289 55.645 326.362 56.916 324.148 56.916C320.95 56.916 318.367 54.333 318.367 51.135C318.367 47.937 320.95 45.354 324.148 45.354C326.362 45.354 328.289 46.625 329.273 48.47V41.746C327.756 40.926 325.993 40.434 324.148 40.434C318.244 40.434 313.447 45.231 313.447 51.135C313.447 57.039 318.244 61.836 324.148 61.836ZM324.148 56.26C327.018 56.26 329.273 53.964 329.273 51.135C329.273 48.306 327.018 46.01 324.148 46.01C321.319 46.01 319.023 48.306 319.023 51.135C319.023 53.964 321.319 56.26 324.148 56.26ZM350.551 45.846V46.502H349.362C346.861 46.502 344.729 48.634 344.729 51.135C344.729 53.636 346.861 55.768 349.362 55.768H350.551V56.424H349.362C346.492 56.424 344.073 54.005 344.073 51.135C344.073 48.265 346.492 45.846 349.362 45.846H350.551ZM350.551 40.926H349.362C343.745 40.926 339.153 45.518 339.153 51.135C339.153 56.752 343.745 61.344 349.362 61.344H350.551V62H349.362C343.376 62 338.497 57.121 338.497 51.135C338.497 45.149 343.376 40.27 349.362 40.27H350.551V40.926ZM356.07 40.926H352.831V40.27H356.07V33.3H356.726V40.27H361.646V33.3H362.302V40.27H365.541V40.926H362.302V45.846H365.541V46.502H362.302V62H361.646V46.502H356.726V62H356.07V46.502H352.831V45.846H356.07V40.926ZM361.646 40.926H356.726V45.846H361.646V40.926ZM390.873 61.016L400.959 33.3H401.697L391.242 62H390.504L387.921 54.907L385.338 62H384.6L374.145 33.3H374.883L384.969 61.016L387.552 53.923L380.049 33.3H380.787L387.921 52.898L395.055 33.3H395.793L388.29 53.882L390.873 61.016ZM403.549 62V40.27H404.205V62H403.549ZM409.781 40.27V62H409.125V40.27H409.781ZM409.125 38.138V31.25H409.781V38.138H409.125ZM404.205 31.25V38.138H403.549V31.25H404.205ZM416.009 40.926H412.77V40.27H416.009V33.3H416.665V40.27H421.585V33.3H422.241V40.27H425.48V40.926H422.241V45.846H425.48V46.502H422.241V62H421.585V46.502H416.665V62H416.009V46.502H412.77V45.846H416.009V40.926ZM421.585 40.926H416.665V45.846H421.585V40.926ZM426.822 51.135C426.822 44.862 431.906 39.778 438.179 39.778C443.181 39.778 447.404 42.976 448.921 47.486L435.596 55.563C436.375 56.014 437.236 56.26 438.179 56.26C440.229 56.26 441.992 55.03 442.812 53.308L443.427 53.595C442.525 55.563 440.516 56.916 438.179 56.916C436.99 56.916 435.883 56.547 434.981 55.932L430.553 58.638C432.48 60.606 435.186 61.836 438.179 61.836C442.443 61.836 446.174 59.294 447.896 55.645L448.47 55.932C446.666 59.827 442.73 62.492 438.179 62.492C431.906 62.492 426.822 57.408 426.822 51.135ZM427.478 51.135C427.478 52.324 427.683 53.431 428.011 54.497L432.439 51.791C432.398 51.586 432.398 51.34 432.398 51.135C432.398 47.937 434.981 45.354 438.179 45.354C439.368 45.354 440.516 45.723 441.418 46.338L445.805 43.673C443.878 41.664 441.172 40.434 438.179 40.434C432.275 40.434 427.478 45.231 427.478 51.135ZM428.257 55.112C428.708 56.219 429.323 57.244 430.102 58.146L434.407 55.522C433.505 54.743 432.849 53.677 432.562 52.488L428.257 55.112ZM433.054 51.135V51.422L440.803 46.707C440.024 46.256 439.122 46.01 438.179 46.01C435.35 46.01 433.054 48.306 433.054 51.135ZM433.136 52.16C433.382 53.349 434.079 54.415 435.022 55.153L443.222 50.151C442.976 48.962 442.32 47.896 441.377 47.117L433.136 52.16ZM441.992 46.789C442.894 47.568 443.55 48.593 443.796 49.823L448.142 47.158C447.691 46.051 447.035 45.067 446.297 44.165L441.992 46.789ZM460.056 62V33.3H468.092C473.299 33.3 477.522 37.523 477.522 42.73C477.522 44.534 477.03 46.215 476.128 47.65C477.03 49.044 477.522 50.766 477.522 52.57C477.522 57.777 473.299 62 468.092 62H460.056ZM460.712 61.344H465.632V56.424H460.712V61.344ZM460.712 55.768H465.632V49.372H460.712V55.768ZM460.712 48.716H465.632V46.584H460.712V48.716ZM460.712 45.928H465.632V39.532H460.712V45.928ZM460.712 38.876H465.632V33.956H460.712V38.876ZM466.288 61.344H468.092C472.93 61.344 476.866 57.408 476.866 52.57C476.866 50.725 476.292 49.044 475.349 47.65C476.292 46.256 476.866 44.575 476.866 42.73C476.866 37.892 472.93 33.956 468.092 33.956H466.288V38.876H468.092C470.224 38.876 471.946 40.598 471.946 42.73C471.946 44.862 470.224 46.584 468.092 46.584H466.288V48.716H468.092C470.224 48.716 471.946 50.438 471.946 52.57C471.946 54.702 470.224 56.424 468.092 56.424H466.288V61.344ZM466.288 55.768H468.092C469.855 55.768 471.29 54.333 471.29 52.57C471.29 50.807 469.855 49.372 468.092 49.372H466.288V55.768ZM466.288 45.928H468.092C469.855 45.928 471.29 44.493 471.29 42.73C471.29 40.967 469.855 39.532 468.092 39.532H466.288V45.928ZM491.191 62.492C484.918 62.492 479.834 57.408 479.834 51.135C479.834 44.862 484.918 39.778 491.191 39.778C497.464 39.778 502.548 44.862 502.548 51.135C502.548 57.408 497.464 62.492 491.191 62.492ZM491.191 61.836C497.095 61.836 501.892 57.039 501.892 51.135C501.892 45.231 497.095 40.434 491.191 40.434C485.287 40.434 480.49 45.231 480.49 51.135C480.49 57.039 485.287 61.836 491.191 61.836ZM491.191 56.916C487.993 56.916 485.41 54.333 485.41 51.135C485.41 47.937 487.993 45.354 491.191 45.354C494.389 45.354 496.972 47.937 496.972 51.135C496.972 54.333 494.389 56.916 491.191 56.916ZM491.191 56.26C494.02 56.26 496.316 53.964 496.316 51.135C496.316 48.306 494.02 46.01 491.191 46.01C488.362 46.01 486.066 48.306 486.066 51.135C486.066 53.964 488.362 56.26 491.191 56.26ZM505.488 62V40.27H506.144V62H505.488ZM511.72 40.27V62H511.064V40.27H511.72ZM511.064 38.138V31.25H511.72V38.138H511.064ZM506.144 31.25V38.138H505.488V31.25H506.144ZM516.554 31.25V62H515.898V31.25H516.554ZM522.13 31.25V62H521.474V31.25H522.13ZM525.078 51.135C525.078 44.862 530.162 39.778 536.435 39.778C541.437 39.778 545.66 42.976 547.177 47.486L533.852 55.563C534.631 56.014 535.492 56.26 536.435 56.26C538.485 56.26 540.248 55.03 541.068 53.308L541.683 53.595C540.781 55.563 538.772 56.916 536.435 56.916C535.246 56.916 534.139 56.547 533.237 55.932L528.809 58.638C530.736 60.606 533.442 61.836 536.435 61.836C540.699 61.836 544.43 59.294 546.152 55.645L546.726 55.932C544.922 59.827 540.986 62.492 536.435 62.492C530.162 62.492 525.078 57.408 525.078 51.135ZM525.734 51.135C525.734 52.324 525.939 53.431 526.267 54.497L530.695 51.791C530.654 51.586 530.654 51.34 530.654 51.135C530.654 47.937 533.237 45.354 536.435 45.354C537.624 45.354 538.772 45.723 539.674 46.338L544.061 43.673C542.134 41.664 539.428 40.434 536.435 40.434C530.531 40.434 525.734 45.231 525.734 51.135ZM526.513 55.112C526.964 56.219 527.579 57.244 528.358 58.146L532.663 55.522C531.761 54.743 531.105 53.677 530.818 52.488L526.513 55.112ZM531.31 51.135V51.422L539.059 46.707C538.28 46.256 537.378 46.01 536.435 46.01C533.606 46.01 531.31 48.306 531.31 51.135ZM531.392 52.16C531.638 53.349 532.335 54.415 533.278 55.153L541.478 50.151C541.232 48.962 540.576 47.896 539.633 47.117L531.392 52.16ZM540.248 46.789C541.15 47.568 541.806 48.593 542.052 49.823L546.398 47.158C545.947 46.051 545.291 45.067 544.553 44.165L540.248 46.789ZM554.747 62V42.689C552.533 44.042 549.827 46.83 549.827 51.709V62H549.171V40.27H549.827V47.732C550.852 44.903 552.451 43.304 554.747 41.951V40.27H555.403V41.582C557.043 40.762 558.806 40.352 560.528 40.352V41.008C558.806 41.008 557.002 41.459 555.403 42.32V49.044C556.346 47.199 558.314 45.928 560.528 45.928V46.584C557.658 46.584 555.403 48.88 555.403 51.709V62H554.747ZM578.357 39.532V45.928H581.268C583.072 45.928 584.466 44.534 584.466 42.73C584.466 40.926 583.072 39.532 581.268 39.532H578.357ZM578.357 38.876H581.268C583.4 38.876 585.122 40.598 585.122 42.73C585.122 44.862 583.4 46.584 581.268 46.584H578.357V51.504H581.268C586.188 51.504 590.042 47.65 590.042 42.73C590.042 37.81 586.188 33.956 581.268 33.956H578.357V38.876ZM572.781 52.16V62H572.125V33.3H581.268C586.516 33.3 590.698 37.482 590.698 42.73C590.698 47.978 586.516 52.16 581.268 52.16H578.357V62H577.701V52.16H572.781ZM572.781 39.532V45.928H577.701V39.532H572.781ZM577.701 33.956H572.781V38.876H577.701V33.956ZM577.701 46.584H572.781V51.504H577.701V46.584ZM594.15 31.25V62H593.494V31.25H594.15ZM599.726 31.25V62H599.07V31.25H599.726ZM619.812 42.115V60.155C622.559 58.474 624.732 55.071 624.732 51.135C624.732 47.199 622.559 43.796 619.812 42.115ZM614.031 39.778C615.876 39.778 617.598 40.229 619.156 41.008V40.27H619.812V41.377C622.108 42.648 623.871 44.944 624.732 47.322V40.27H625.388V62H624.732V54.907C623.912 57.244 622.108 59.663 619.812 60.934V62H619.156V61.262C617.598 62.041 615.876 62.492 614.031 62.492C607.758 62.492 602.674 57.408 602.674 51.135C602.674 44.862 607.758 39.778 614.031 39.778ZM614.031 61.836C615.876 61.836 617.639 61.385 619.156 60.565V53.841C618.172 55.645 616.245 56.916 614.031 56.916C610.833 56.916 608.25 54.333 608.25 51.135C608.25 47.937 610.833 45.354 614.031 45.354C616.245 45.354 618.172 46.625 619.156 48.47V41.746C617.639 40.926 615.876 40.434 614.031 40.434C608.127 40.434 603.33 45.231 603.33 51.135C603.33 57.039 608.127 61.836 614.031 61.836ZM614.031 56.26C616.901 56.26 619.156 53.964 619.156 51.135C619.156 48.306 616.901 46.01 614.031 46.01C611.202 46.01 608.906 48.306 608.906 51.135C608.906 53.964 611.202 56.26 614.031 56.26ZM631.619 40.926H628.38V40.27H631.619V33.3H632.275V40.27H637.195V33.3H637.851V40.27H641.09V40.926H637.851V45.846H641.09V46.502H637.851V62H637.195V46.502H632.275V62H631.619V46.502H628.38V45.846H631.619V40.926ZM637.195 40.926H632.275V45.846H637.195V40.926ZM642.433 51.135C642.433 44.862 647.517 39.778 653.79 39.778C658.792 39.778 663.015 42.976 664.532 47.486L651.207 55.563C651.986 56.014 652.847 56.26 653.79 56.26C655.84 56.26 657.603 55.03 658.423 53.308L659.038 53.595C658.136 55.563 656.127 56.916 653.79 56.916C652.601 56.916 651.494 56.547 650.592 55.932L646.164 58.638C648.091 60.606 650.797 61.836 653.79 61.836C658.054 61.836 661.785 59.294 663.507 55.645L664.081 55.932C662.277 59.827 658.341 62.492 653.79 62.492C647.517 62.492 642.433 57.408 642.433 51.135ZM643.089 51.135C643.089 52.324 643.294 53.431 643.622 54.497L648.05 51.791C648.009 51.586 648.009 51.34 648.009 51.135C648.009 47.937 650.592 45.354 653.79 45.354C654.979 45.354 656.127 45.723 657.029 46.338L661.416 43.673C659.489 41.664 656.783 40.434 653.79 40.434C647.886 40.434 643.089 45.231 643.089 51.135ZM643.868 55.112C644.319 56.219 644.934 57.244 645.713 58.146L650.018 55.522C649.116 54.743 648.46 53.677 648.173 52.488L643.868 55.112ZM648.665 51.135V51.422L656.414 46.707C655.635 46.256 654.733 46.01 653.79 46.01C650.961 46.01 648.665 48.306 648.665 51.135ZM648.747 52.16C648.993 53.349 649.69 54.415 650.633 55.153L658.833 50.151C658.587 48.962 657.931 47.896 656.988 47.117L648.747 52.16ZM657.603 46.789C658.505 47.568 659.161 48.593 659.407 49.823L663.753 47.158C663.302 46.051 662.646 45.067 661.908 44.165L657.603 46.789ZM678.723 33.956H672.86V33.3H690.818V33.956H684.955V38.876H690.818V39.532H684.955V62H684.299V39.532H679.379V62H678.723V39.532H672.86V38.876H678.723V33.956ZM684.299 33.956H679.379V38.876H684.299V33.956ZM689.399 51.135C689.399 44.862 694.483 39.778 700.756 39.778C705.758 39.778 709.981 42.976 711.498 47.486L698.173 55.563C698.952 56.014 699.813 56.26 700.756 56.26C702.806 56.26 704.569 55.03 705.389 53.308L706.004 53.595C705.102 55.563 703.093 56.916 700.756 56.916C699.567 56.916 698.46 56.547 697.558 55.932L693.13 58.638C695.057 60.606 697.763 61.836 700.756 61.836C705.02 61.836 708.751 59.294 710.473 55.645L711.047 55.932C709.243 59.827 705.307 62.492 700.756 62.492C694.483 62.492 689.399 57.408 689.399 51.135ZM690.055 51.135C690.055 52.324 690.26 53.431 690.588 54.497L695.016 51.791C694.975 51.586 694.975 51.34 694.975 51.135C694.975 47.937 697.558 45.354 700.756 45.354C701.945 45.354 703.093 45.723 703.995 46.338L708.382 43.673C706.455 41.664 703.749 40.434 700.756 40.434C694.852 40.434 690.055 45.231 690.055 51.135ZM690.834 55.112C691.285 56.219 691.9 57.244 692.679 58.146L696.984 55.522C696.082 54.743 695.426 53.677 695.139 52.488L690.834 55.112ZM695.631 51.135V51.422L703.38 46.707C702.601 46.256 701.699 46.01 700.756 46.01C697.927 46.01 695.631 48.306 695.631 51.135ZM695.713 52.16C695.959 53.349 696.656 54.415 697.599 55.153L705.799 50.151C705.553 48.962 704.897 47.896 703.954 47.117L695.713 52.16ZM704.569 46.789C705.471 47.568 706.127 48.593 706.373 49.823L710.719 47.158C710.268 46.051 709.612 45.067 708.874 44.165L704.569 46.789ZM724.356 45.846V46.502H723.167C720.666 46.502 718.534 48.634 718.534 51.135C718.534 53.636 720.666 55.768 723.167 55.768H724.356V56.424H723.167C720.297 56.424 717.878 54.005 717.878 51.135C717.878 48.265 720.297 45.846 723.167 45.846H724.356ZM724.356 40.926H723.167C717.55 40.926 712.958 45.518 712.958 51.135C712.958 56.752 717.55 61.344 723.167 61.344H724.356V62H723.167C717.181 62 712.302 57.121 712.302 51.135C712.302 45.149 717.181 40.27 723.167 40.27H724.356V40.926ZM727.825 62V31.25H728.481V46.461C729.383 44.124 731.146 42.197 733.401 41.09V31.25H734.057V40.762C735.205 40.311 736.435 40.065 737.747 40.065C743.2 40.065 747.669 44.534 747.669 49.987V62H747.013V49.987C747.013 44.903 742.831 40.721 737.747 40.721C736.435 40.721 735.205 41.008 734.057 41.5V47.691C734.836 46.461 736.189 45.641 737.747 45.641C740.125 45.641 742.093 47.609 742.093 49.987V62H741.437V49.987C741.437 47.978 739.756 46.297 737.747 46.297C735.738 46.297 734.057 47.978 734.057 49.987V62H733.401V41.828C730.49 43.386 728.481 46.461 728.481 49.987V62H727.825ZM751.528 62V40.27H752.184V46.461C753.086 44.124 754.849 42.197 757.104 41.09V40.27H757.76V40.762C758.908 40.311 760.138 40.065 761.45 40.065C766.903 40.065 771.372 44.534 771.372 49.987V62H770.716V49.987C770.716 44.903 766.534 40.721 761.45 40.721C760.138 40.721 758.908 41.008 757.76 41.5V47.691C758.539 46.461 759.892 45.641 761.45 45.641C763.828 45.641 765.796 47.609 765.796 49.987V62H765.14V49.987C765.14 47.978 763.459 46.297 761.45 46.297C759.441 46.297 757.76 47.978 757.76 49.987V62H757.104V41.828C754.193 43.386 752.184 46.461 752.184 49.987V62H751.528ZM775.231 62V40.27H775.887V62H775.231ZM781.463 40.27V62H780.807V40.27H781.463ZM780.807 38.138V31.25H781.463V38.138H780.807ZM775.887 31.25V38.138H775.231V31.25H775.887ZM784.452 51.135C784.452 44.862 789.536 39.778 795.809 39.778C797.654 39.778 799.376 40.229 800.934 41.008V40.27H801.59V41.377C803.886 42.648 805.649 44.944 806.51 47.322V40.27H807.166V60.155C807.166 66.428 802.123 71.512 795.809 71.512C791.914 71.512 788.47 69.503 786.379 66.51L786.953 66.182C788.921 69.011 792.16 70.856 795.809 70.856C801.795 70.856 806.51 66.1 806.51 60.155V54.907C805.69 57.285 803.845 59.663 801.508 60.934C801.098 63.722 798.761 65.936 795.809 65.936C793.964 65.936 792.283 65.034 791.217 63.722L791.791 63.394C792.693 64.501 794.21 65.28 795.809 65.28C798.269 65.28 800.278 63.599 800.811 61.344C799.294 62.041 797.572 62.492 795.809 62.492C789.536 62.492 784.452 57.408 784.452 51.135ZM785.108 51.135C785.108 57.039 789.905 61.836 795.809 61.836C797.654 61.836 799.376 61.385 800.893 60.565C800.934 60.278 800.934 59.745 800.934 59.212V53.841C799.95 55.645 798.023 56.916 795.809 56.916C792.611 56.916 790.028 54.333 790.028 51.135C790.028 47.937 792.611 45.354 795.809 45.354C798.023 45.354 799.95 46.625 800.934 48.47V41.746C799.417 40.926 797.654 40.434 795.809 40.434C789.905 40.434 785.108 45.231 785.108 51.135ZM790.684 51.135C790.684 53.964 792.98 56.26 795.809 56.26C798.679 56.26 800.934 53.964 800.934 51.135C800.934 48.306 798.679 46.01 795.809 46.01C792.98 46.01 790.684 48.306 790.684 51.135ZM801.59 42.115V60.155C804.337 58.474 806.51 55.071 806.51 51.135C806.51 47.199 804.337 43.796 801.59 42.115ZM821.433 62.492C815.16 62.492 810.076 57.408 810.076 51.135C810.076 44.862 815.16 39.778 821.433 39.778C827.706 39.778 832.79 44.862 832.79 51.135C832.79 57.408 827.706 62.492 821.433 62.492ZM821.433 61.836C827.337 61.836 832.134 57.039 832.134 51.135C832.134 45.231 827.337 40.434 821.433 40.434C815.529 40.434 810.732 45.231 810.732 51.135C810.732 57.039 815.529 61.836 821.433 61.836ZM821.433 56.916C818.235 56.916 815.652 54.333 815.652 51.135C815.652 47.937 818.235 45.354 821.433 45.354C824.631 45.354 827.214 47.937 827.214 51.135C827.214 54.333 824.631 56.916 821.433 56.916ZM821.433 56.26C824.262 56.26 826.558 53.964 826.558 51.135C826.558 48.306 824.262 46.01 821.433 46.01C818.604 46.01 816.308 48.306 816.308 51.135C816.308 53.964 818.604 56.26 821.433 56.26ZM857.664 62H857.008L851.104 46.871V62H850.448V39.532H845.528V62H844.872V33.3H854.015C859.263 33.3 863.445 37.482 863.445 42.73C863.445 46.912 861.354 49.372 858.935 50.889L863.24 62H862.584L858.402 51.217C857.213 51.914 855.532 52.529 854.138 52.939L857.664 62ZM856.762 45.313L858.689 50.274C860.903 48.88 862.789 46.584 862.789 42.73C862.789 37.81 858.935 33.956 854.015 33.956H851.104V38.876H854.015C856.147 38.876 857.869 40.598 857.869 42.73C857.869 43.714 857.5 44.575 856.762 45.313ZM851.104 39.532V46.871L852.662 46.543C855.86 45.846 857.213 44.493 857.213 42.73C857.213 40.926 855.819 39.532 854.015 39.532H851.104ZM845.528 33.956V38.876H850.448V33.956H845.528ZM858.156 50.602L856.27 45.764C855.04 46.707 853.605 47.035 852.006 47.363L853.892 52.283C855.122 51.955 857.131 51.217 858.156 50.602ZM864.93 51.135C864.93 44.862 870.014 39.778 876.287 39.778C881.289 39.778 885.512 42.976 887.029 47.486L873.704 55.563C874.483 56.014 875.344 56.26 876.287 56.26C878.337 56.26 880.1 55.03 880.92 53.308L881.535 53.595C880.633 55.563 878.624 56.916 876.287 56.916C875.098 56.916 873.991 56.547 873.089 55.932L868.661 58.638C870.588 60.606 873.294 61.836 876.287 61.836C880.551 61.836 884.282 59.294 886.004 55.645L886.578 55.932C884.774 59.827 880.838 62.492 876.287 62.492C870.014 62.492 864.93 57.408 864.93 51.135ZM865.586 51.135C865.586 52.324 865.791 53.431 866.119 54.497L870.547 51.791C870.506 51.586 870.506 51.34 870.506 51.135C870.506 47.937 873.089 45.354 876.287 45.354C877.476 45.354 878.624 45.723 879.526 46.338L883.913 43.673C881.986 41.664 879.28 40.434 876.287 40.434C870.383 40.434 865.586 45.231 865.586 51.135ZM866.365 55.112C866.816 56.219 867.431 57.244 868.21 58.146L872.515 55.522C871.613 54.743 870.957 53.677 870.67 52.488L866.365 55.112ZM871.162 51.135V51.422L878.911 46.707C878.132 46.256 877.23 46.01 876.287 46.01C873.458 46.01 871.162 48.306 871.162 51.135ZM871.244 52.16C871.49 53.349 872.187 54.415 873.13 55.153L881.33 50.151C881.084 48.962 880.428 47.896 879.485 47.117L871.244 52.16ZM880.1 46.789C881.002 47.568 881.658 48.593 881.904 49.823L886.25 47.158C885.799 46.051 885.143 45.067 884.405 44.165L880.1 46.789ZM904.93 42.115V60.155C907.677 58.474 909.85 55.071 909.85 51.135C909.85 47.199 907.677 43.796 904.93 42.115ZM899.149 39.778C900.994 39.778 902.716 40.229 904.274 41.008V40.27H904.93V41.377C907.226 42.648 908.989 44.944 909.85 47.322V40.27H910.506V62H909.85V54.907C909.03 57.244 907.226 59.663 904.93 60.934V62H904.274V61.262C902.716 62.041 900.994 62.492 899.149 62.492C892.876 62.492 887.792 57.408 887.792 51.135C887.792 44.862 892.876 39.778 899.149 39.778ZM899.149 61.836C900.994 61.836 902.757 61.385 904.274 60.565V53.841C903.29 55.645 901.363 56.916 899.149 56.916C895.951 56.916 893.368 54.333 893.368 51.135C893.368 47.937 895.951 45.354 899.149 45.354C901.363 45.354 903.29 46.625 904.274 48.47V41.746C902.757 40.926 900.994 40.434 899.149 40.434C893.245 40.434 888.448 45.231 888.448 51.135C888.448 57.039 893.245 61.836 899.149 61.836ZM899.149 56.26C902.019 56.26 904.274 53.964 904.274 51.135C904.274 48.306 902.019 46.01 899.149 46.01C896.32 46.01 894.024 48.306 894.024 51.135C894.024 53.964 896.32 56.26 899.149 56.26ZM925.552 45.846V46.502H924.363C921.862 46.502 919.73 48.634 919.73 51.135C919.73 53.636 921.862 55.768 924.363 55.768H925.552V56.424H924.363C921.493 56.424 919.074 54.005 919.074 51.135C919.074 48.265 921.493 45.846 924.363 45.846H925.552ZM925.552 40.926H924.363C918.746 40.926 914.154 45.518 914.154 51.135C914.154 56.752 918.746 61.344 924.363 61.344H925.552V62H924.363C918.377 62 913.498 57.121 913.498 51.135C913.498 45.149 918.377 40.27 924.363 40.27H925.552V40.926ZM931.071 40.926H927.832V40.27H931.071V33.3H931.727V40.27H936.647V33.3H937.303V40.27H940.542V40.926H937.303V45.846H940.542V46.502H937.303V62H936.647V46.502H931.727V62H931.071V46.502H927.832V45.846H931.071V40.926ZM936.647 40.926H931.727V45.846H936.647V40.926ZM965.874 61.016L975.96 33.3H976.698L966.243 62H965.505L962.922 54.907L960.339 62H959.601L949.146 33.3H949.884L959.97 61.016L962.553 53.923L955.05 33.3H955.788L962.922 52.898L970.056 33.3H970.794L963.291 53.882L965.874 61.016ZM978.549 62V40.27H979.205V62H978.549ZM984.781 40.27V62H984.125V40.27H984.781ZM984.125 38.138V31.25H984.781V38.138H984.125ZM979.205 31.25V38.138H978.549V31.25H979.205ZM991.01 40.926H987.771V40.27H991.01V33.3H991.666V40.27H996.586V33.3H997.242V40.27H1000.48V40.926H997.242V45.846H1000.48V46.502H997.242V62H996.586V46.502H991.666V62H991.01V46.502H987.771V45.846H991.01V40.926ZM996.586 40.926H991.666V45.846H996.586V40.926ZM1001.82 51.135C1001.82 44.862 1006.91 39.778 1013.18 39.778C1018.18 39.778 1022.41 42.976 1023.92 47.486L1010.6 55.563C1011.38 56.014 1012.24 56.26 1013.18 56.26C1015.23 56.26 1016.99 55.03 1017.81 53.308L1018.43 53.595C1017.53 55.563 1015.52 56.916 1013.18 56.916C1011.99 56.916 1010.88 56.547 1009.98 55.932L1005.55 58.638C1007.48 60.606 1010.19 61.836 1013.18 61.836C1017.44 61.836 1021.18 59.294 1022.9 55.645L1023.47 55.932C1021.67 59.827 1017.73 62.492 1013.18 62.492C1006.91 62.492 1001.82 57.408 1001.82 51.135ZM1002.48 51.135C1002.48 52.324 1002.68 53.431 1003.01 54.497L1007.44 51.791C1007.4 51.586 1007.4 51.34 1007.4 51.135C1007.4 47.937 1009.98 45.354 1013.18 45.354C1014.37 45.354 1015.52 45.723 1016.42 46.338L1020.81 43.673C1018.88 41.664 1016.17 40.434 1013.18 40.434C1007.28 40.434 1002.48 45.231 1002.48 51.135ZM1003.26 55.112C1003.71 56.219 1004.32 57.244 1005.1 58.146L1009.41 55.522C1008.51 54.743 1007.85 53.677 1007.56 52.488L1003.26 55.112ZM1008.06 51.135V51.422L1015.8 46.707C1015.03 46.256 1014.12 46.01 1013.18 46.01C1010.35 46.01 1008.06 48.306 1008.06 51.135ZM1008.14 52.16C1008.38 53.349 1009.08 54.415 1010.02 55.153L1018.22 50.151C1017.98 48.962 1017.32 47.896 1016.38 47.117L1008.14 52.16ZM1016.99 46.789C1017.9 47.568 1018.55 48.593 1018.8 49.823L1023.14 47.158C1022.69 46.051 1022.04 45.067 1021.3 44.165L1016.99 46.789ZM1035.06 62V33.3H1043.09C1048.3 33.3 1052.52 37.523 1052.52 42.73C1052.52 44.534 1052.03 46.215 1051.13 47.65C1052.03 49.044 1052.52 50.766 1052.52 52.57C1052.52 57.777 1048.3 62 1043.09 62H1035.06ZM1035.71 61.344H1040.63V56.424H1035.71V61.344ZM1035.71 55.768H1040.63V49.372H1035.71V55.768ZM1035.71 48.716H1040.63V46.584H1035.71V48.716ZM1035.71 45.928H1040.63V39.532H1035.71V45.928ZM1035.71 38.876H1040.63V33.956H1035.71V38.876ZM1041.29 61.344H1043.09C1047.93 61.344 1051.87 57.408 1051.87 52.57C1051.87 50.725 1051.29 49.044 1050.35 47.65C1051.29 46.256 1051.87 44.575 1051.87 42.73C1051.87 37.892 1047.93 33.956 1043.09 33.956H1041.29V38.876H1043.09C1045.23 38.876 1046.95 40.598 1046.95 42.73C1046.95 44.862 1045.23 46.584 1043.09 46.584H1041.29V48.716H1043.09C1045.23 48.716 1046.95 50.438 1046.95 52.57C1046.95 54.702 1045.23 56.424 1043.09 56.424H1041.29V61.344ZM1041.29 55.768H1043.09C1044.86 55.768 1046.29 54.333 1046.29 52.57C1046.29 50.807 1044.86 49.372 1043.09 49.372H1041.29V55.768ZM1041.29 45.928H1043.09C1044.86 45.928 1046.29 44.493 1046.29 42.73C1046.29 40.967 1044.86 39.532 1043.09 39.532H1041.29V45.928ZM1066.19 62.492C1059.92 62.492 1054.84 57.408 1054.84 51.135C1054.84 44.862 1059.92 39.778 1066.19 39.778C1072.47 39.778 1077.55 44.862 1077.55 51.135C1077.55 57.408 1072.47 62.492 1066.19 62.492ZM1066.19 61.836C1072.1 61.836 1076.89 57.039 1076.89 51.135C1076.89 45.231 1072.1 40.434 1066.19 40.434C1060.29 40.434 1055.49 45.231 1055.49 51.135C1055.49 57.039 1060.29 61.836 1066.19 61.836ZM1066.19 56.916C1062.99 56.916 1060.41 54.333 1060.41 51.135C1060.41 47.937 1062.99 45.354 1066.19 45.354C1069.39 45.354 1071.97 47.937 1071.97 51.135C1071.97 54.333 1069.39 56.916 1066.19 56.916ZM1066.19 56.26C1069.02 56.26 1071.32 53.964 1071.32 51.135C1071.32 48.306 1069.02 46.01 1066.19 46.01C1063.36 46.01 1061.07 48.306 1061.07 51.135C1061.07 53.964 1063.36 56.26 1066.19 56.26ZM1080.49 62V40.27H1081.14V62H1080.49ZM1086.72 40.27V62H1086.06V40.27H1086.72ZM1086.06 38.138V31.25H1086.72V38.138H1086.06ZM1081.14 31.25V38.138H1080.49V31.25H1081.14ZM1091.56 31.25V62H1090.9V31.25H1091.56ZM1097.13 31.25V62H1096.48V31.25H1097.13ZM1100.08 51.135C1100.08 44.862 1105.16 39.778 1111.44 39.778C1116.44 39.778 1120.66 42.976 1122.18 47.486L1108.85 55.563C1109.63 56.014 1110.49 56.26 1111.44 56.26C1113.49 56.26 1115.25 55.03 1116.07 53.308L1116.68 53.595C1115.78 55.563 1113.77 56.916 1111.44 56.916C1110.25 56.916 1109.14 56.547 1108.24 55.932L1103.81 58.638C1105.74 60.606 1108.44 61.836 1111.44 61.836C1115.7 61.836 1119.43 59.294 1121.15 55.645L1121.73 55.932C1119.92 59.827 1115.99 62.492 1111.44 62.492C1105.16 62.492 1100.08 57.408 1100.08 51.135ZM1100.74 51.135C1100.74 52.324 1100.94 53.431 1101.27 54.497L1105.7 51.791C1105.66 51.586 1105.66 51.34 1105.66 51.135C1105.66 47.937 1108.24 45.354 1111.44 45.354C1112.63 45.354 1113.77 45.723 1114.68 46.338L1119.06 43.673C1117.14 41.664 1114.43 40.434 1111.44 40.434C1105.53 40.434 1100.74 45.231 1100.74 51.135ZM1101.51 55.112C1101.97 56.219 1102.58 57.244 1103.36 58.146L1107.66 55.522C1106.76 54.743 1106.11 53.677 1105.82 52.488L1101.51 55.112ZM1106.31 51.135V51.422L1114.06 46.707C1113.28 46.256 1112.38 46.01 1111.44 46.01C1108.61 46.01 1106.31 48.306 1106.31 51.135ZM1106.39 52.16C1106.64 53.349 1107.34 54.415 1108.28 55.153L1116.48 50.151C1116.23 48.962 1115.58 47.896 1114.63 47.117L1106.39 52.16ZM1115.25 46.789C1116.15 47.568 1116.81 48.593 1117.05 49.823L1121.4 47.158C1120.95 46.051 1120.29 45.067 1119.55 44.165L1115.25 46.789ZM1129.75 62V42.689C1127.53 44.042 1124.83 46.83 1124.83 51.709V62H1124.17V40.27H1124.83V47.732C1125.85 44.903 1127.45 43.304 1129.75 41.951V40.27H1130.4V41.582C1132.04 40.762 1133.81 40.352 1135.53 40.352V41.008C1133.81 41.008 1132 41.459 1130.4 42.32V49.044C1131.35 47.199 1133.31 45.928 1135.53 45.928V46.584C1132.66 46.584 1130.4 48.88 1130.4 51.709V62H1129.75ZM1153.36 39.532V45.928H1156.27C1158.07 45.928 1159.47 44.534 1159.47 42.73C1159.47 40.926 1158.07 39.532 1156.27 39.532H1153.36ZM1153.36 38.876H1156.27C1158.4 38.876 1160.12 40.598 1160.12 42.73C1160.12 44.862 1158.4 46.584 1156.27 46.584H1153.36V51.504H1156.27C1161.19 51.504 1165.04 47.65 1165.04 42.73C1165.04 37.81 1161.19 33.956 1156.27 33.956H1153.36V38.876ZM1147.78 52.16V62H1147.13V33.3H1156.27C1161.52 33.3 1165.7 37.482 1165.7 42.73C1165.7 47.978 1161.52 52.16 1156.27 52.16H1153.36V62H1152.7V52.16H1147.78ZM1147.78 39.532V45.928H1152.7V39.532H1147.78ZM1152.7 33.956H1147.78V38.876H1152.7V33.956ZM1152.7 46.584H1147.78V51.504H1152.7V46.584ZM1169.15 31.25V62H1168.49V31.25H1169.15ZM1174.73 31.25V62H1174.07V31.25H1174.73ZM1194.81 42.115V60.155C1197.56 58.474 1199.73 55.071 1199.73 51.135C1199.73 47.199 1197.56 43.796 1194.81 42.115ZM1189.03 39.778C1190.88 39.778 1192.6 40.229 1194.16 41.008V40.27H1194.81V41.377C1197.11 42.648 1198.87 44.944 1199.73 47.322V40.27H1200.39V62H1199.73V54.907C1198.91 57.244 1197.11 59.663 1194.81 60.934V62H1194.16V61.262C1192.6 62.041 1190.88 62.492 1189.03 62.492C1182.76 62.492 1177.67 57.408 1177.67 51.135C1177.67 44.862 1182.76 39.778 1189.03 39.778ZM1189.03 61.836C1190.88 61.836 1192.64 61.385 1194.16 60.565V53.841C1193.17 55.645 1191.25 56.916 1189.03 56.916C1185.83 56.916 1183.25 54.333 1183.25 51.135C1183.25 47.937 1185.83 45.354 1189.03 45.354C1191.25 45.354 1193.17 46.625 1194.16 48.47V41.746C1192.64 40.926 1190.88 40.434 1189.03 40.434C1183.13 40.434 1178.33 45.231 1178.33 51.135C1178.33 57.039 1183.13 61.836 1189.03 61.836ZM1189.03 56.26C1191.9 56.26 1194.16 53.964 1194.16 51.135C1194.16 48.306 1191.9 46.01 1189.03 46.01C1186.2 46.01 1183.91 48.306 1183.91 51.135C1183.91 53.964 1186.2 56.26 1189.03 56.26ZM1206.62 40.926H1203.38V40.27H1206.62V33.3H1207.28V40.27H1212.2V33.3H1212.85V40.27H1216.09V40.926H1212.85V45.846H1216.09V46.502H1212.85V62H1212.2V46.502H1207.28V62H1206.62V46.502H1203.38V45.846H1206.62V40.926ZM1212.2 40.926H1207.28V45.846H1212.2V40.926ZM1217.43 51.135C1217.43 44.862 1222.52 39.778 1228.79 39.778C1233.79 39.778 1238.02 42.976 1239.53 47.486L1226.21 55.563C1226.99 56.014 1227.85 56.26 1228.79 56.26C1230.84 56.26 1232.6 55.03 1233.42 53.308L1234.04 53.595C1233.14 55.563 1231.13 56.916 1228.79 56.916C1227.6 56.916 1226.49 56.547 1225.59 55.932L1221.16 58.638C1223.09 60.606 1225.8 61.836 1228.79 61.836C1233.05 61.836 1236.79 59.294 1238.51 55.645L1239.08 55.932C1237.28 59.827 1233.34 62.492 1228.79 62.492C1222.52 62.492 1217.43 57.408 1217.43 51.135ZM1218.09 51.135C1218.09 52.324 1218.29 53.431 1218.62 54.497L1223.05 51.791C1223.01 51.586 1223.01 51.34 1223.01 51.135C1223.01 47.937 1225.59 45.354 1228.79 45.354C1229.98 45.354 1231.13 45.723 1232.03 46.338L1236.42 43.673C1234.49 41.664 1231.78 40.434 1228.79 40.434C1222.89 40.434 1218.09 45.231 1218.09 51.135ZM1218.87 55.112C1219.32 56.219 1219.93 57.244 1220.71 58.146L1225.02 55.522C1224.12 54.743 1223.46 53.677 1223.17 52.488L1218.87 55.112ZM1223.67 51.135V51.422L1231.41 46.707C1230.64 46.256 1229.73 46.01 1228.79 46.01C1225.96 46.01 1223.67 48.306 1223.67 51.135ZM1223.75 52.16C1223.99 53.349 1224.69 54.415 1225.63 55.153L1233.83 50.151C1233.59 48.962 1232.93 47.896 1231.99 47.117L1223.75 52.16ZM1232.6 46.789C1233.51 47.568 1234.16 48.593 1234.41 49.823L1238.75 47.158C1238.3 46.051 1237.65 45.067 1236.91 44.165L1232.6 46.789ZM1253.72 33.956H1247.86V33.3H1265.82V33.956H1259.96V38.876H1265.82V39.532H1259.96V62H1259.3V39.532H1254.38V62H1253.72V39.532H1247.86V38.876H1253.72V33.956ZM1259.3 33.956H1254.38V38.876H1259.3V33.956ZM1264.4 51.135C1264.4 44.862 1269.48 39.778 1275.76 39.778C1280.76 39.778 1284.98 42.976 1286.5 47.486L1273.17 55.563C1273.95 56.014 1274.81 56.26 1275.76 56.26C1277.81 56.26 1279.57 55.03 1280.39 53.308L1281 53.595C1280.1 55.563 1278.09 56.916 1275.76 56.916C1274.57 56.916 1273.46 56.547 1272.56 55.932L1268.13 58.638C1270.06 60.606 1272.76 61.836 1275.76 61.836C1280.02 61.836 1283.75 59.294 1285.47 55.645L1286.05 55.932C1284.24 59.827 1280.31 62.492 1275.76 62.492C1269.48 62.492 1264.4 57.408 1264.4 51.135ZM1265.06 51.135C1265.06 52.324 1265.26 53.431 1265.59 54.497L1270.02 51.791C1269.98 51.586 1269.98 51.34 1269.98 51.135C1269.98 47.937 1272.56 45.354 1275.76 45.354C1276.95 45.354 1278.09 45.723 1279 46.338L1283.38 43.673C1281.46 41.664 1278.75 40.434 1275.76 40.434C1269.85 40.434 1265.06 45.231 1265.06 51.135ZM1265.83 55.112C1266.29 56.219 1266.9 57.244 1267.68 58.146L1271.98 55.522C1271.08 54.743 1270.43 53.677 1270.14 52.488L1265.83 55.112ZM1270.63 51.135V51.422L1278.38 46.707C1277.6 46.256 1276.7 46.01 1275.76 46.01C1272.93 46.01 1270.63 48.306 1270.63 51.135ZM1270.71 52.16C1270.96 53.349 1271.66 54.415 1272.6 55.153L1280.8 50.151C1280.55 48.962 1279.9 47.896 1278.95 47.117L1270.71 52.16ZM1279.57 46.789C1280.47 47.568 1281.13 48.593 1281.37 49.823L1285.72 47.158C1285.27 46.051 1284.61 45.067 1283.87 44.165L1279.57 46.789ZM1299.36 45.846V46.502H1298.17C1295.67 46.502 1293.53 48.634 1293.53 51.135C1293.53 53.636 1295.67 55.768 1298.17 55.768H1299.36V56.424H1298.17C1295.3 56.424 1292.88 54.005 1292.88 51.135C1292.88 48.265 1295.3 45.846 1298.17 45.846H1299.36ZM1299.36 40.926H1298.17C1292.55 40.926 1287.96 45.518 1287.96 51.135C1287.96 56.752 1292.55 61.344 1298.17 61.344H1299.36V62H1298.17C1292.18 62 1287.3 57.121 1287.3 51.135C1287.3 45.149 1292.18 40.27 1298.17 40.27H1299.36V40.926ZM1302.83 62V31.25H1303.48V46.461C1304.38 44.124 1306.15 42.197 1308.4 41.09V31.25H1309.06V40.762C1310.21 40.311 1311.44 40.065 1312.75 40.065C1318.2 40.065 1322.67 44.534 1322.67 49.987V62H1322.01V49.987C1322.01 44.903 1317.83 40.721 1312.75 40.721C1311.44 40.721 1310.21 41.008 1309.06 41.5V47.691C1309.84 46.461 1311.19 45.641 1312.75 45.641C1315.13 45.641 1317.09 47.609 1317.09 49.987V62H1316.44V49.987C1316.44 47.978 1314.76 46.297 1312.75 46.297C1310.74 46.297 1309.06 47.978 1309.06 49.987V62H1308.4V41.828C1305.49 43.386 1303.48 46.461 1303.48 49.987V62H1302.83ZM1326.53 62V40.27H1327.18V46.461C1328.09 44.124 1329.85 42.197 1332.1 41.09V40.27H1332.76V40.762C1333.91 40.311 1335.14 40.065 1336.45 40.065C1341.9 40.065 1346.37 44.534 1346.37 49.987V62H1345.72V49.987C1345.72 44.903 1341.53 40.721 1336.45 40.721C1335.14 40.721 1333.91 41.008 1332.76 41.5V47.691C1333.54 46.461 1334.89 45.641 1336.45 45.641C1338.83 45.641 1340.8 47.609 1340.8 49.987V62H1340.14V49.987C1340.14 47.978 1338.46 46.297 1336.45 46.297C1334.44 46.297 1332.76 47.978 1332.76 49.987V62H1332.1V41.828C1329.19 43.386 1327.18 46.461 1327.18 49.987V62H1326.53ZM1350.23 62V40.27H1350.89V62H1350.23ZM1356.46 40.27V62H1355.81V40.27H1356.46ZM1355.81 38.138V31.25H1356.46V38.138H1355.81ZM1350.89 31.25V38.138H1350.23V31.25H1350.89ZM1359.45 51.135C1359.45 44.862 1364.54 39.778 1370.81 39.778C1372.66 39.778 1374.38 40.229 1375.94 41.008V40.27H1376.59V41.377C1378.89 42.648 1380.65 44.944 1381.51 47.322V40.27H1382.17V60.155C1382.17 66.428 1377.12 71.512 1370.81 71.512C1366.92 71.512 1363.47 69.503 1361.38 66.51L1361.95 66.182C1363.92 69.011 1367.16 70.856 1370.81 70.856C1376.8 70.856 1381.51 66.1 1381.51 60.155V54.907C1380.69 57.285 1378.85 59.663 1376.51 60.934C1376.1 63.722 1373.76 65.936 1370.81 65.936C1368.97 65.936 1367.28 65.034 1366.22 63.722L1366.79 63.394C1367.69 64.501 1369.21 65.28 1370.81 65.28C1373.27 65.28 1375.28 63.599 1375.81 61.344C1374.3 62.041 1372.57 62.492 1370.81 62.492C1364.54 62.492 1359.45 57.408 1359.45 51.135ZM1360.11 51.135C1360.11 57.039 1364.91 61.836 1370.81 61.836C1372.66 61.836 1374.38 61.385 1375.89 60.565C1375.94 60.278 1375.94 59.745 1375.94 59.212V53.841C1374.95 55.645 1373.02 56.916 1370.81 56.916C1367.61 56.916 1365.03 54.333 1365.03 51.135C1365.03 47.937 1367.61 45.354 1370.81 45.354C1373.02 45.354 1374.95 46.625 1375.94 48.47V41.746C1374.42 40.926 1372.66 40.434 1370.81 40.434C1364.91 40.434 1360.11 45.231 1360.11 51.135ZM1365.69 51.135C1365.69 53.964 1367.98 56.26 1370.81 56.26C1373.68 56.26 1375.94 53.964 1375.94 51.135C1375.94 48.306 1373.68 46.01 1370.81 46.01C1367.98 46.01 1365.69 48.306 1365.69 51.135ZM1376.59 42.115V60.155C1379.34 58.474 1381.51 55.071 1381.51 51.135C1381.51 47.199 1379.34 43.796 1376.59 42.115ZM1396.43 62.492C1390.16 62.492 1385.08 57.408 1385.08 51.135C1385.08 44.862 1390.16 39.778 1396.43 39.778C1402.71 39.778 1407.79 44.862 1407.79 51.135C1407.79 57.408 1402.71 62.492 1396.43 62.492ZM1396.43 61.836C1402.34 61.836 1407.14 57.039 1407.14 51.135C1407.14 45.231 1402.34 40.434 1396.43 40.434C1390.53 40.434 1385.73 45.231 1385.73 51.135C1385.73 57.039 1390.53 61.836 1396.43 61.836ZM1396.43 56.916C1393.24 56.916 1390.65 54.333 1390.65 51.135C1390.65 47.937 1393.24 45.354 1396.43 45.354C1399.63 45.354 1402.22 47.937 1402.22 51.135C1402.22 54.333 1399.63 56.916 1396.43 56.916ZM1396.43 56.26C1399.26 56.26 1401.56 53.964 1401.56 51.135C1401.56 48.306 1399.26 46.01 1396.43 46.01C1393.61 46.01 1391.31 48.306 1391.31 51.135C1391.31 53.964 1393.61 56.26 1396.43 56.26ZM1432.66 62H1432.01L1426.1 46.871V62H1425.45V39.532H1420.53V62H1419.87V33.3H1429.02C1434.26 33.3 1438.45 37.482 1438.45 42.73C1438.45 46.912 1436.35 49.372 1433.94 50.889L1438.24 62H1437.58L1433.4 51.217C1432.21 51.914 1430.53 52.529 1429.14 52.939L1432.66 62ZM1431.76 45.313L1433.69 50.274C1435.9 48.88 1437.79 46.584 1437.79 42.73C1437.79 37.81 1433.94 33.956 1429.02 33.956H1426.1V38.876H1429.02C1431.15 38.876 1432.87 40.598 1432.87 42.73C1432.87 43.714 1432.5 44.575 1431.76 45.313ZM1426.1 39.532V46.871L1427.66 46.543C1430.86 45.846 1432.21 44.493 1432.21 42.73C1432.21 40.926 1430.82 39.532 1429.02 39.532H1426.1ZM1420.53 33.956V38.876H1425.45V33.956H1420.53ZM1433.16 50.602L1431.27 45.764C1430.04 46.707 1428.61 47.035 1427.01 47.363L1428.89 52.283C1430.12 51.955 1432.13 51.217 1433.16 50.602ZM1439.93 51.135C1439.93 44.862 1445.01 39.778 1451.29 39.778C1456.29 39.778 1460.51 42.976 1462.03 47.486L1448.7 55.563C1449.48 56.014 1450.34 56.26 1451.29 56.26C1453.34 56.26 1455.1 55.03 1455.92 53.308L1456.54 53.595C1455.63 55.563 1453.62 56.916 1451.29 56.916C1450.1 56.916 1448.99 56.547 1448.09 55.932L1443.66 58.638C1445.59 60.606 1448.29 61.836 1451.29 61.836C1455.55 61.836 1459.28 59.294 1461 55.645L1461.58 55.932C1459.77 59.827 1455.84 62.492 1451.29 62.492C1445.01 62.492 1439.93 57.408 1439.93 51.135ZM1440.59 51.135C1440.59 52.324 1440.79 53.431 1441.12 54.497L1445.55 51.791C1445.51 51.586 1445.51 51.34 1445.51 51.135C1445.51 47.937 1448.09 45.354 1451.29 45.354C1452.48 45.354 1453.62 45.723 1454.53 46.338L1458.91 43.673C1456.99 41.664 1454.28 40.434 1451.29 40.434C1445.38 40.434 1440.59 45.231 1440.59 51.135ZM1441.37 55.112C1441.82 56.219 1442.43 57.244 1443.21 58.146L1447.52 55.522C1446.61 54.743 1445.96 53.677 1445.67 52.488L1441.37 55.112ZM1446.16 51.135V51.422L1453.91 46.707C1453.13 46.256 1452.23 46.01 1451.29 46.01C1448.46 46.01 1446.16 48.306 1446.16 51.135ZM1446.24 52.16C1446.49 53.349 1447.19 54.415 1448.13 55.153L1456.33 50.151C1456.08 48.962 1455.43 47.896 1454.49 47.117L1446.24 52.16ZM1455.1 46.789C1456 47.568 1456.66 48.593 1456.9 49.823L1461.25 47.158C1460.8 46.051 1460.14 45.067 1459.41 44.165L1455.1 46.789ZM1479.93 42.115V60.155C1482.68 58.474 1484.85 55.071 1484.85 51.135C1484.85 47.199 1482.68 43.796 1479.93 42.115ZM1474.15 39.778C1476 39.778 1477.72 40.229 1479.28 41.008V40.27H1479.93V41.377C1482.23 42.648 1483.99 44.944 1484.85 47.322V40.27H1485.51V62H1484.85V54.907C1484.03 57.244 1482.23 59.663 1479.93 60.934V62H1479.28V61.262C1477.72 62.041 1476 62.492 1474.15 62.492C1467.88 62.492 1462.79 57.408 1462.79 51.135C1462.79 44.862 1467.88 39.778 1474.15 39.778ZM1474.15 61.836C1476 61.836 1477.76 61.385 1479.28 60.565V53.841C1478.29 55.645 1476.36 56.916 1474.15 56.916C1470.95 56.916 1468.37 54.333 1468.37 51.135C1468.37 47.937 1470.95 45.354 1474.15 45.354C1476.36 45.354 1478.29 46.625 1479.28 48.47V41.746C1477.76 40.926 1476 40.434 1474.15 40.434C1468.25 40.434 1463.45 45.231 1463.45 51.135C1463.45 57.039 1468.25 61.836 1474.15 61.836ZM1474.15 56.26C1477.02 56.26 1479.28 53.964 1479.28 51.135C1479.28 48.306 1477.02 46.01 1474.15 46.01C1471.32 46.01 1469.03 48.306 1469.03 51.135C1469.03 53.964 1471.32 56.26 1474.15 56.26ZM1500.55 45.846V46.502H1499.36C1496.86 46.502 1494.73 48.634 1494.73 51.135C1494.73 53.636 1496.86 55.768 1499.36 55.768H1500.55V56.424H1499.36C1496.49 56.424 1494.08 54.005 1494.08 51.135C1494.08 48.265 1496.49 45.846 1499.36 45.846H1500.55ZM1500.55 40.926H1499.36C1493.75 40.926 1489.16 45.518 1489.16 51.135C1489.16 56.752 1493.75 61.344 1499.36 61.344H1500.55V62H1499.36C1493.38 62 1488.5 57.121 1488.5 51.135C1488.5 45.149 1493.38 40.27 1499.36 40.27H1500.55V40.926ZM1506.07 40.926H1502.83V40.27H1506.07V33.3H1506.73V40.27H1511.65V33.3H1512.3V40.27H1515.54V40.926H1512.3V45.846H1515.54V46.502H1512.3V62H1511.65V46.502H1506.73V62H1506.07V46.502H1502.83V45.846H1506.07V40.926ZM1511.65 40.926H1506.73V45.846H1511.65V40.926ZM1540.88 61.016L1550.96 33.3H1551.7L1541.24 62H1540.51L1537.92 54.907L1535.34 62H1534.6L1524.15 33.3H1524.89L1534.97 61.016L1537.55 53.923L1530.05 33.3H1530.79L1537.92 52.898L1545.06 33.3H1545.8L1538.29 53.882L1540.88 61.016ZM1553.55 62V40.27H1554.21V62H1553.55ZM1559.78 40.27V62H1559.13V40.27H1559.78ZM1559.13 38.138V31.25H1559.78V38.138H1559.13ZM1554.21 31.25V38.138H1553.55V31.25H1554.21ZM1566.01 40.926H1562.77V40.27H1566.01V33.3H1566.67V40.27H1571.59V33.3H1572.24V40.27H1575.48V40.926H1572.24V45.846H1575.48V46.502H1572.24V62H1571.59V46.502H1566.67V62H1566.01V46.502H1562.77V45.846H1566.01V40.926ZM1571.59 40.926H1566.67V45.846H1571.59V40.926ZM1576.82 51.135C1576.82 44.862 1581.91 39.778 1588.18 39.778C1593.18 39.778 1597.41 42.976 1598.92 47.486L1585.6 55.563C1586.38 56.014 1587.24 56.26 1588.18 56.26C1590.23 56.26 1591.99 55.03 1592.81 53.308L1593.43 53.595C1592.53 55.563 1590.52 56.916 1588.18 56.916C1586.99 56.916 1585.89 56.547 1584.98 55.932L1580.56 58.638C1582.48 60.606 1585.19 61.836 1588.18 61.836C1592.45 61.836 1596.18 59.294 1597.9 55.645L1598.47 55.932C1596.67 59.827 1592.73 62.492 1588.18 62.492C1581.91 62.492 1576.82 57.408 1576.82 51.135ZM1577.48 51.135C1577.48 52.324 1577.69 53.431 1578.01 54.497L1582.44 51.791C1582.4 51.586 1582.4 51.34 1582.4 51.135C1582.4 47.937 1584.98 45.354 1588.18 45.354C1589.37 45.354 1590.52 45.723 1591.42 46.338L1595.81 43.673C1593.88 41.664 1591.17 40.434 1588.18 40.434C1582.28 40.434 1577.48 45.231 1577.48 51.135ZM1578.26 55.112C1578.71 56.219 1579.33 57.244 1580.1 58.146L1584.41 55.522C1583.51 54.743 1582.85 53.677 1582.56 52.488L1578.26 55.112ZM1583.06 51.135V51.422L1590.81 46.707C1590.03 46.256 1589.12 46.01 1588.18 46.01C1585.35 46.01 1583.06 48.306 1583.06 51.135ZM1583.14 52.16C1583.38 53.349 1584.08 54.415 1585.02 55.153L1593.22 50.151C1592.98 48.962 1592.32 47.896 1591.38 47.117L1583.14 52.16ZM1591.99 46.789C1592.9 47.568 1593.55 48.593 1593.8 49.823L1598.14 47.158C1597.69 46.051 1597.04 45.067 1596.3 44.165L1591.99 46.789ZM1610.06 62V33.3H1618.09C1623.3 33.3 1627.52 37.523 1627.52 42.73C1627.52 44.534 1627.03 46.215 1626.13 47.65C1627.03 49.044 1627.52 50.766 1627.52 52.57C1627.52 57.777 1623.3 62 1618.09 62H1610.06ZM1610.71 61.344H1615.63V56.424H1610.71V61.344ZM1610.71 55.768H1615.63V49.372H1610.71V55.768ZM1610.71 48.716H1615.63V46.584H1610.71V48.716ZM1610.71 45.928H1615.63V39.532H1610.71V45.928ZM1610.71 38.876H1615.63V33.956H1610.71V38.876ZM1616.29 61.344H1618.09C1622.93 61.344 1626.87 57.408 1626.87 52.57C1626.87 50.725 1626.29 49.044 1625.35 47.65C1626.29 46.256 1626.87 44.575 1626.87 42.73C1626.87 37.892 1622.93 33.956 1618.09 33.956H1616.29V38.876H1618.09C1620.23 38.876 1621.95 40.598 1621.95 42.73C1621.95 44.862 1620.23 46.584 1618.09 46.584H1616.29V48.716H1618.09C1620.23 48.716 1621.95 50.438 1621.95 52.57C1621.95 54.702 1620.23 56.424 1618.09 56.424H1616.29V61.344ZM1616.29 55.768H1618.09C1619.86 55.768 1621.29 54.333 1621.29 52.57C1621.29 50.807 1619.86 49.372 1618.09 49.372H1616.29V55.768ZM1616.29 45.928H1618.09C1619.86 45.928 1621.29 44.493 1621.29 42.73C1621.29 40.967 1619.86 39.532 1618.09 39.532H1616.29V45.928ZM1641.19 62.492C1634.92 62.492 1629.84 57.408 1629.84 51.135C1629.84 44.862 1634.92 39.778 1641.19 39.778C1647.47 39.778 1652.55 44.862 1652.55 51.135C1652.55 57.408 1647.47 62.492 1641.19 62.492ZM1641.19 61.836C1647.1 61.836 1651.89 57.039 1651.89 51.135C1651.89 45.231 1647.1 40.434 1641.19 40.434C1635.29 40.434 1630.49 45.231 1630.49 51.135C1630.49 57.039 1635.29 61.836 1641.19 61.836ZM1641.19 56.916C1638 56.916 1635.41 54.333 1635.41 51.135C1635.41 47.937 1638 45.354 1641.19 45.354C1644.39 45.354 1646.97 47.937 1646.97 51.135C1646.97 54.333 1644.39 56.916 1641.19 56.916ZM1641.19 56.26C1644.02 56.26 1646.32 53.964 1646.32 51.135C1646.32 48.306 1644.02 46.01 1641.19 46.01C1638.36 46.01 1636.07 48.306 1636.07 51.135C1636.07 53.964 1638.36 56.26 1641.19 56.26ZM1655.49 62V40.27H1656.15V62H1655.49ZM1661.72 40.27V62H1661.07V40.27H1661.72ZM1661.07 38.138V31.25H1661.72V38.138H1661.07ZM1656.15 31.25V38.138H1655.49V31.25H1656.15ZM1666.56 31.25V62H1665.9V31.25H1666.56ZM1672.13 31.25V62H1671.48V31.25H1672.13ZM1675.08 51.135C1675.08 44.862 1680.16 39.778 1686.44 39.778C1691.44 39.778 1695.66 42.976 1697.18 47.486L1683.85 55.563C1684.63 56.014 1685.49 56.26 1686.44 56.26C1688.49 56.26 1690.25 55.03 1691.07 53.308L1691.69 53.595C1690.78 55.563 1688.77 56.916 1686.44 56.916C1685.25 56.916 1684.14 56.547 1683.24 55.932L1678.81 58.638C1680.74 60.606 1683.44 61.836 1686.44 61.836C1690.7 61.836 1694.43 59.294 1696.15 55.645L1696.73 55.932C1694.92 59.827 1690.99 62.492 1686.44 62.492C1680.16 62.492 1675.08 57.408 1675.08 51.135ZM1675.74 51.135C1675.74 52.324 1675.94 53.431 1676.27 54.497L1680.7 51.791C1680.66 51.586 1680.66 51.34 1680.66 51.135C1680.66 47.937 1683.24 45.354 1686.44 45.354C1687.63 45.354 1688.77 45.723 1689.68 46.338L1694.06 43.673C1692.14 41.664 1689.43 40.434 1686.44 40.434C1680.53 40.434 1675.74 45.231 1675.74 51.135ZM1676.52 55.112C1676.97 56.219 1677.58 57.244 1678.36 58.146L1682.67 55.522C1681.76 54.743 1681.11 53.677 1680.82 52.488L1676.52 55.112ZM1681.31 51.135V51.422L1689.06 46.707C1688.28 46.256 1687.38 46.01 1686.44 46.01C1683.61 46.01 1681.31 48.306 1681.31 51.135ZM1681.39 52.16C1681.64 53.349 1682.34 54.415 1683.28 55.153L1691.48 50.151C1691.23 48.962 1690.58 47.896 1689.64 47.117L1681.39 52.16ZM1690.25 46.789C1691.15 47.568 1691.81 48.593 1692.05 49.823L1696.4 47.158C1695.95 46.051 1695.29 45.067 1694.56 44.165L1690.25 46.789ZM1704.75 62V42.689C1702.53 44.042 1699.83 46.83 1699.83 51.709V62H1699.17V40.27H1699.83V47.732C1700.85 44.903 1702.45 43.304 1704.75 41.951V40.27H1705.4V41.582C1707.04 40.762 1708.81 40.352 1710.53 40.352V41.008C1708.81 41.008 1707 41.459 1705.4 42.32V49.044C1706.35 47.199 1708.32 45.928 1710.53 45.928V46.584C1707.66 46.584 1705.4 48.88 1705.4 51.709V62H1704.75ZM1728.36 39.532V45.928H1731.27C1733.07 45.928 1734.47 44.534 1734.47 42.73C1734.47 40.926 1733.07 39.532 1731.27 39.532H1728.36ZM1728.36 38.876H1731.27C1733.4 38.876 1735.12 40.598 1735.12 42.73C1735.12 44.862 1733.4 46.584 1731.27 46.584H1728.36V51.504H1731.27C1736.19 51.504 1740.04 47.65 1740.04 42.73C1740.04 37.81 1736.19 33.956 1731.27 33.956H1728.36V38.876ZM1722.78 52.16V62H1722.13V33.3H1731.27C1736.52 33.3 1740.7 37.482 1740.7 42.73C1740.7 47.978 1736.52 52.16 1731.27 52.16H1728.36V62H1727.7V52.16H1722.78ZM1722.78 39.532V45.928H1727.7V39.532H1722.78ZM1727.7 33.956H1722.78V38.876H1727.7V33.956ZM1727.7 46.584H1722.78V51.504H1727.7V46.584ZM1744.15 31.25V62H1743.5V31.25H1744.15ZM1749.73 31.25V62H1749.07V31.25H1749.73ZM1769.81 42.115V60.155C1772.56 58.474 1774.73 55.071 1774.73 51.135C1774.73 47.199 1772.56 43.796 1769.81 42.115ZM1764.03 39.778C1765.88 39.778 1767.6 40.229 1769.16 41.008V40.27H1769.81V41.377C1772.11 42.648 1773.87 44.944 1774.73 47.322V40.27H1775.39V62H1774.73V54.907C1773.91 57.244 1772.11 59.663 1769.81 60.934V62H1769.16V61.262C1767.6 62.041 1765.88 62.492 1764.03 62.492C1757.76 62.492 1752.68 57.408 1752.68 51.135C1752.68 44.862 1757.76 39.778 1764.03 39.778ZM1764.03 61.836C1765.88 61.836 1767.64 61.385 1769.16 60.565V53.841C1768.17 55.645 1766.25 56.916 1764.03 56.916C1760.83 56.916 1758.25 54.333 1758.25 51.135C1758.25 47.937 1760.83 45.354 1764.03 45.354C1766.25 45.354 1768.17 46.625 1769.16 48.47V41.746C1767.64 40.926 1765.88 40.434 1764.03 40.434C1758.13 40.434 1753.33 45.231 1753.33 51.135C1753.33 57.039 1758.13 61.836 1764.03 61.836ZM1764.03 56.26C1766.9 56.26 1769.16 53.964 1769.16 51.135C1769.16 48.306 1766.9 46.01 1764.03 46.01C1761.2 46.01 1758.91 48.306 1758.91 51.135C1758.91 53.964 1761.2 56.26 1764.03 56.26ZM1781.62 40.926H1778.38V40.27H1781.62V33.3H1782.28V40.27H1787.2V33.3H1787.85V40.27H1791.09V40.926H1787.85V45.846H1791.09V46.502H1787.85V62H1787.2V46.502H1782.28V62H1781.62V46.502H1778.38V45.846H1781.62V40.926ZM1787.2 40.926H1782.28V45.846H1787.2V40.926ZM1792.43 51.135C1792.43 44.862 1797.52 39.778 1803.79 39.778C1808.79 39.778 1813.02 42.976 1814.53 47.486L1801.21 55.563C1801.99 56.014 1802.85 56.26 1803.79 56.26C1805.84 56.26 1807.6 55.03 1808.42 53.308L1809.04 53.595C1808.14 55.563 1806.13 56.916 1803.79 56.916C1802.6 56.916 1801.5 56.547 1800.59 55.932L1796.17 58.638C1798.09 60.606 1800.8 61.836 1803.79 61.836C1808.06 61.836 1811.79 59.294 1813.51 55.645L1814.08 55.932C1812.28 59.827 1808.34 62.492 1803.79 62.492C1797.52 62.492 1792.43 57.408 1792.43 51.135ZM1793.09 51.135C1793.09 52.324 1793.3 53.431 1793.62 54.497L1798.05 51.791C1798.01 51.586 1798.01 51.34 1798.01 51.135C1798.01 47.937 1800.59 45.354 1803.79 45.354C1804.98 45.354 1806.13 45.723 1807.03 46.338L1811.42 43.673C1809.49 41.664 1806.78 40.434 1803.79 40.434C1797.89 40.434 1793.09 45.231 1793.09 51.135ZM1793.87 55.112C1794.32 56.219 1794.94 57.244 1795.71 58.146L1800.02 55.522C1799.12 54.743 1798.46 53.677 1798.17 52.488L1793.87 55.112ZM1798.67 51.135V51.422L1806.42 46.707C1805.64 46.256 1804.73 46.01 1803.79 46.01C1800.96 46.01 1798.67 48.306 1798.67 51.135ZM1798.75 52.16C1798.99 53.349 1799.69 54.415 1800.63 55.153L1808.83 50.151C1808.59 48.962 1807.93 47.896 1806.99 47.117L1798.75 52.16ZM1807.6 46.789C1808.51 47.568 1809.16 48.593 1809.41 49.823L1813.75 47.158C1813.3 46.051 1812.65 45.067 1811.91 44.165L1807.6 46.789Z" fill="white"/>
</g>
<defs>
<clipPath id="clip0_442_862">
<rect width="1940" height="343" fill="white"/>
</clipPath>
</defs>
</svg>
