<svg width="747" height="358" viewBox="0 0 747 358" fill="none" xmlns="http://www.w3.org/2000/svg">
<path d="M680.871 277.565C680.871 278.037 680.871 278.509 680.871 278.509C680.871 294.544 664.598 307.278 644.107 307.278C623.615 307.278 607.342 294.544 607.342 278.509C607.342 278.037 607.342 277.565 607.342 277.565H541.648C542.251 321.427 587.453 356.8 644.107 356.8C700.157 356.8 745.962 321.427 746.565 277.565H680.871Z" fill="#FF4575"/>
<path d="M746.565 276.64C745.947 277.127 745.947 277.127 746.565 276.64C745.947 277.127 746.565 277.127 746.565 276.64Z" fill="#FF0055"/>
<path d="M745.963 277.1C745.361 232.767 700.159 197.394 643.505 197.394C587.454 197.394 541.65 232.767 541.047 276.628C541.047 276.628 541.047 276.628 541.047 277.1C541.047 277.1 541.047 277.1 541.047 277.572H607.343C607.946 262.479 624.219 250.217 644.108 250.217C663.997 250.217 679.667 262.479 680.872 277.572L745.963 277.1C746.566 277.1 745.963 277.1 745.963 277.1Z" fill="#FFC700"/>
<path d="M520.547 277.097C520.547 320.959 475.345 356.803 418.691 356.803C362.641 356.803 316.836 320.959 316.836 277.097C316.836 233.235 362.038 197.391 418.691 197.391C446.415 197.391 471.729 206.352 490.412 220.501C490.412 220.501 369.27 278.04 370.476 277.097H520.547Z" fill="#0025FF"/>
<path d="M228.848 197.394H298.76V356.806H228.848V197.394Z" fill="#FFAEC1"/>
<path d="M251.147 351.144C249.339 351.144 248.134 350.672 246.326 350.672H242.107C237.285 350.672 233.067 351.144 228.848 352.087V356.803H271.036C267.42 355.388 263.804 353.973 260.188 353.03C257.174 352.087 254.161 351.615 251.147 351.144Z" fill="white"/>
<path d="M281.888 339.362C276.463 336.061 270.436 333.231 263.807 331.345C261.999 330.873 260.191 330.401 258.985 329.93C257.177 329.458 255.369 328.987 253.561 328.987C251.753 328.515 249.945 328.515 248.137 328.515H242.712C237.891 328.515 233.672 328.987 229.453 329.93V338.419C233.672 337.476 238.494 336.533 242.712 336.533C254.766 336.533 265.615 340.777 275.258 346.909C280.08 349.738 284.298 353.04 288.517 356.813C288.517 357.284 289.12 357.284 289.12 357.756H298.763V352.097C293.339 346.909 287.915 343.136 281.888 339.362Z" fill="white"/>
<path d="M298.158 328.033C293.336 324.26 287.912 320.487 282.488 316.714C276.461 313.412 270.434 310.111 263.201 307.753L257.777 306.338C255.969 305.866 253.558 305.866 251.75 305.394C249.339 304.923 247.531 304.923 245.723 304.923H243.312C242.71 304.923 243.312 304.923 242.107 304.923H241.504H240.299C238.491 304.923 236.08 304.923 234.272 305.394L228.848 306.338V314.356C229.45 314.356 230.053 313.884 230.656 313.884L235.477 312.941C237.285 312.469 238.491 312.941 240.299 312.469H241.504H242.107C241.504 312.469 242.107 312.469 242.107 312.469H244.518C246.326 312.469 248.134 312.469 249.339 312.941C250.545 313.412 252.353 313.412 253.558 313.884L257.777 315.299C263.804 317.185 269.228 320.015 274.05 323.317C282.488 328.976 290.323 335.579 296.952 342.182L298.158 328.033Z" fill="white"/>
<path d="M282.49 293.598C276.463 290.296 270.436 286.995 263.204 284.637L257.78 283.222C255.972 282.75 253.561 282.75 251.753 282.279C249.945 281.807 248.137 281.807 246.329 281.807H243.918C243.315 281.807 243.918 281.807 242.712 281.807H242.11H240.904C239.096 281.807 236.685 281.807 234.877 282.279L229.453 283.222V290.768C230.056 290.768 230.659 290.296 231.261 290.296L236.083 289.353C237.891 288.881 239.096 289.353 240.904 288.881H242.11H242.712C242.11 288.881 242.712 288.881 243.315 288.881H245.726C247.534 288.881 249.342 288.881 250.547 289.353C251.753 289.825 253.561 289.825 254.766 290.296L259.588 291.711C265.615 293.598 271.039 296.427 276.463 299.729C284.901 305.389 292.133 311.52 299.366 318.123V304.917C293.339 301.144 287.915 296.899 282.49 293.598Z" fill="white"/>
<path d="M281.885 270.033C275.858 266.732 269.831 263.431 262.599 261.072L257.174 259.658C255.366 259.186 252.955 259.186 251.147 258.714C249.339 258.243 247.531 258.243 245.723 258.243H243.312C242.71 258.243 243.312 258.243 242.107 258.243H241.504H240.299C238.491 258.243 236.08 258.243 234.272 258.714L228.848 259.658V266.732C229.45 266.732 230.053 266.26 230.656 266.26L235.477 265.317C237.285 264.846 238.491 265.317 240.299 264.846H241.504H242.107C241.504 264.846 242.107 264.846 242.71 264.846H245.12C246.929 264.846 248.737 264.846 249.942 265.317C251.147 265.789 252.955 265.789 254.161 266.26L258.982 267.675C265.009 269.562 270.434 272.392 275.858 275.693C284.296 280.881 291.528 287.484 298.158 294.087V281.824C293.336 278.051 287.912 273.807 281.885 270.033Z" fill="white"/>
<path d="M281.902 256.346C287.929 260.591 293.354 265.779 298.778 270.967V259.176C297.572 258.232 296.367 257.289 295.162 256.346H281.902Z" fill="white"/>
<path d="M134.211 274.75V356.814H203.521V274.279L150.484 274.75H134.211Z" fill="#0025FF"/>
<path d="M102.27 197.394C46.2189 197.394 0.414062 231.352 0.414062 273.799V356.806H70.3267V274.742H134.815H151.088H204.125C203.522 231.823 158.32 197.394 102.27 197.394Z" fill="#FFC700"/>
<path d="M676.613 0.718262H746.526V160.13H676.613V0.718262Z" fill="#FF4575"/>
<path d="M618.163 0.718262H548.25V80.4242H618.163V0.718262Z" fill="#FFAEC1"/>
<path d="M548.25 84.1993V160.132H618.163V84.1993V80.4263H548.25V84.1993Z" fill="#0025FF"/>
<path d="M630.806 55.4302C626.587 57.7883 621.766 60.1465 617.547 62.5047V71.4657C627.19 65.8061 636.833 60.6181 646.476 55.4302H630.806Z" fill="#0018A4"/>
<path d="M626.587 84.1926C638.038 76.1749 650.695 69.1004 663.352 62.0259L672.995 56.8379L676.008 54.9514H660.941C647.079 62.0259 633.217 69.572 619.958 78.0614C619.355 78.5331 618.15 79.0047 617.547 79.9479V90.7955C620.56 88.909 623.574 86.5508 626.587 84.1926Z" fill="#0018A4"/>
<path d="M640.459 96.9338C645.281 92.2175 650.102 87.9728 656.129 84.1998C667.58 76.182 680.237 69.1075 692.894 62.033C697.113 59.6749 701.331 57.7883 705.55 55.4302H691.688C677.224 62.5047 663.362 70.0508 650.102 79.0118C644.075 83.2565 638.048 87.5012 633.227 92.2175C627.803 96.9338 623.584 102.593 620.57 108.725H631.419C633.83 104.48 636.843 100.707 640.459 96.9338Z" fill="#0018A4"/>
<path d="M686.269 84.1953C697.118 76.1775 709.775 68.6314 722.431 61.0852C726.65 58.7271 730.266 56.3689 734.485 54.0107L721.226 54.4824C707.364 62.0285 693.502 70.0463 680.845 79.0073C674.818 83.252 669.394 87.9683 664.572 92.6846C659.751 97.401 655.532 103.061 653.121 109.192L662.764 108.72C665.175 104.475 668.188 100.231 671.805 96.4577C675.421 92.6846 680.845 88.4399 686.269 84.1953Z" fill="#0018A4"/>
<path d="M715.799 83.7243C725.442 77.1215 735.688 70.9902 746.536 65.3306V58.7278C734.483 65.3306 721.826 71.9335 710.375 79.4796C704.348 83.7243 698.321 87.969 693.499 92.6853C688.678 97.4017 683.856 103.061 681.445 108.721H690.486C695.91 99.2882 705.553 91.2704 715.799 83.7243Z" fill="#0018A4"/>
<path d="M745.329 83.7253C745.932 83.7253 745.932 83.2536 746.534 83.2536V75.7075C744.726 77.1224 742.316 78.0657 740.508 79.4806C734.481 83.7253 728.454 87.97 723.632 92.6863C718.81 97.4026 714.592 102.591 711.578 108.722H720.016C722.427 104.477 726.043 100.232 729.659 96.4594C734.481 91.743 739.905 87.97 745.329 83.7253Z" fill="#0018A4"/>
<path d="M746.54 100.702C744.732 103.06 742.924 105.89 741.719 108.72H746.54V100.702Z" fill="#0018A4"/>
<path d="M527.184 160.13C471.133 160.13 425.328 124.286 425.328 80.4242C425.328 36.5623 470.53 0.718262 527.184 0.718262V160.13Z" fill="#FFD338"/>
<path d="M311.406 1.18401C339.733 1.18401 365.046 10.145 383.127 24.294C364.444 9.67339 339.13 0.712373 311.406 1.18401C254.753 1.18401 209.551 36.5565 209.551 80.8899C209.551 36.5565 254.753 1.18401 311.406 1.18401Z" fill="#D1A537"/>
<path d="M310.801 160.598C338.525 160.598 363.838 151.637 382.522 137.488C382.522 137.488 261.983 80.4209 262.585 80.8926H208.945C209.548 124.754 254.75 160.598 310.801 160.598Z" fill="#FF4575"/>
<path d="M413.261 80.4162C413.261 58.2494 401.809 38.4409 383.729 24.2919C365.648 10.1429 339.732 1.18188 312.008 1.18188C255.957 1.18188 210.152 36.5543 210.152 80.8878H263.792L413.261 80.4162Z" fill="#FFAEC1"/>
<path d="M93.8398 1.19873H163.753V160.611H93.8398V1.19873Z" fill="#FF4575"/>
<path d="M195.687 30.4375V85.1469H0.414062V30.4375H195.687Z" fill="#0025FF"/>
</svg>
